<svg enable-background="new 0 0 935.038 575.899" height="576" viewBox="0 0 935.038 575.899" width="936"
     xmlns="http://www.w3.org/2000/svg">
    <path d="m601.009 512.297 332.745-183.49s.662 31.529-.04 37.598c-.553 4.783-3.206 9.356-7.961 12.116l-324.744 188.503z"/>
    <path d="m601.009 568.024c-.172 0-.345-.044-.499-.133-.31-.178-.501-.509-.501-.867v-54.726c0-.364.198-.7.518-.876l332.745-183.49c.307-.169.679-.165.981.009.304.175.493.495.501.845.027 1.29.655 31.667-.047 37.734-.626 5.422-3.707 10.111-8.452 12.866l-324.744 188.503c-.155.09-.328.135-.502.135zm1-55.136v52.399l323.242-187.631c4.193-2.434 6.916-6.577 7.47-11.366.594-5.138.189-29.24.065-35.807z"/>
    <path d="m1.004 209.653s-.008 28.439 0 33.518c.008 5.034 2.495 10.064 7.467 12.958l533.979 310.865c18.097 10.53 40.452 10.542 58.56.03v-92.625z"
          fill="#fff"/>
    <path d="m571.755 575.88c-10.31 0-20.617-2.674-29.81-8.022l-533.978-310.865c-4.977-2.896-7.954-8.062-7.964-13.82-.008-5.079 0-33.52 0-33.52 0-.338.171-.653.454-.838s.641-.213.949-.077l600.006 264.746c.363.16.597.519.597.915v92.625c0 .356-.189.686-.498.865-9.177 5.327-19.468 7.991-29.756 7.991zm-569.751-364.693c-.002 5.981-.007 27.616 0 31.982.009 5.039 2.614 9.56 6.97 12.095l533.979 310.865c17.58 10.228 39.39 10.335 57.058.315v-91.394z"/>
    <path d="m925.692 316.224-531.743-307.203c-18.613-10.694-41.507-10.695-60.121-.001l-325.286 186.872c-10.02 5.756-10.06 20.197-.072 26.008l533.979 310.865c18.097 10.53 40.452 10.542 58.56.031l324.744-188.503c10.789-6.263 10.754-21.854-.061-28.069z"
          fill="#fff"/>
    <path d="m571.755 541.652c-10.31 0-20.617-2.674-29.81-8.023l-533.978-310.865c-5.003-2.911-7.979-8.104-7.964-13.892.017-5.788 3.022-10.965 8.041-13.848l325.286-186.871c18.851-10.828 42.269-10.828 61.117.002l531.743 307.202c5.393 3.099 8.62 8.662 8.634 14.881s-3.189 11.797-8.568 14.919l-324.745 188.503c-9.177 5.328-19.468 7.991-29.756 7.992zm-207.868-539.622c-10.222 0-20.444 2.619-29.562 7.857l-325.284 186.872c-4.393 2.523-7.022 7.054-7.037 12.119-.014 5.065 2.592 9.61 6.97 12.158l533.979 310.865c17.744 10.325 39.8 10.337 57.556.03l324.744-188.503c4.754-2.759 7.585-7.688 7.572-13.185-.012-5.497-2.864-10.413-7.63-13.151-.001 0-.002-.001-.002-.001l-531.744-307.204c-9.116-5.238-19.339-7.857-29.562-7.857z"/>
    <path d="m566.52 498.975-.271-.001c-.553-.004-.997-.455-.993-1.007.004-.55.451-.993 1-.993h.007l.258.001c5.932 0 11.78-1.574 16.912-4.553l10.035-5.821c.479-.277 1.09-.114 1.367.363.277.478.114 1.09-.363 1.367l-10.035 5.821c-5.437 3.155-11.633 4.823-17.917 4.823zm-27.899-10.787c-.171 0-.344-.044-.502-.136l-26.025-15.143c-.478-.278-.639-.89-.361-1.367.277-.477.89-.639 1.367-.361l26.025 15.143c.478.278.64.89.361 1.367-.186.319-.521.497-.865.497zm81.394-14.831c-.345 0-.681-.178-.866-.498-.277-.478-.114-1.09.363-1.367l26.044-15.109c.479-.278 1.09-.114 1.367.363.277.478.114 1.09-.363 1.367l-26.044 15.109c-.158.092-.331.135-.501.135zm-133.445-15.455c-.171 0-.344-.044-.502-.136l-26.024-15.143c-.478-.278-.639-.89-.361-1.367s.891-.639 1.367-.361l26.024 15.143c.478.278.639.89.361 1.367-.185.319-.52.497-.865.497zm185.534-14.762c-.345 0-.681-.179-.866-.498-.277-.478-.114-1.09.363-1.367l26.045-15.109c.48-.277 1.091-.114 1.367.363.277.478.114 1.09-.363 1.367l-26.045 15.109c-.158.092-.331.135-.501.135zm-237.584-15.523c-.171 0-.344-.044-.502-.136l-26.024-15.143c-.478-.278-.639-.89-.361-1.367.277-.477.89-.639 1.367-.361l26.024 15.143c.478.278.639.89.361 1.367-.185.319-.52.497-.865.497zm289.674-14.694c-.345 0-.681-.179-.866-.498-.277-.478-.114-1.09.363-1.367l26.045-15.109c.48-.278 1.091-.114 1.367.363.277.478.114 1.09-.363 1.367l-26.045 15.109c-.158.091-.331.135-.501.135zm-341.724-15.592c-.171 0-.344-.044-.502-.136l-26.024-15.143c-.478-.278-.64-.89-.361-1.367.277-.477.89-.639 1.367-.361l26.024 15.143c.478.278.64.89.361 1.367-.185.319-.52.497-.865.497zm393.814-14.625c-.345 0-.681-.179-.866-.498-.277-.478-.114-1.09.363-1.367l26.045-15.109c.479-.277 1.091-.114 1.367.363.277.478.114 1.09-.363 1.367l-26.045 15.109c-.158.091-.331.135-.501.135zm-412.488-21.683c-.346 0-.683-.18-.867-.501-.276-.479-.111-1.09.367-1.366l26.091-15.028c.479-.276 1.09-.111 1.365.367.276.479.111 1.09-.367 1.366l-26.091 15.028c-.158.091-.33.134-.498.134zm464.578-8.535c-.345 0-.681-.179-.866-.498-.277-.478-.114-1.09.363-1.367l26.044-15.109c.479-.278 1.091-.114 1.367.363.277.478.114 1.09-.363 1.367l-26.044 15.109c-.159.092-.331.135-.501.135zm-412.396-21.52c-.346 0-.683-.18-.867-.501-.276-.479-.111-1.09.367-1.366l26.092-15.028c.479-.276 1.091-.111 1.365.367.276.479.111 1.09-.367 1.366l-26.092 15.028c-.157.091-.329.134-.498.134zm446.531-15.397.508-.862-.523.852-26.124-15.009c-.479-.275-.645-.886-.369-1.365.273-.479.884-.644 1.365-.369l26.107 15-.456.891zm-394.347-14.659c-.346 0-.683-.18-.867-.501-.276-.479-.111-1.09.367-1.366l26.092-15.028c.479-.276 1.091-.111 1.365.368.276.479.111 1.09-.367 1.366l-26.092 15.028c-.157.09-.329.133-.498.133zm342.597-15.227c-.169 0-.34-.043-.497-.133l-26.107-15c-.479-.275-.645-.886-.369-1.365.274-.479.884-.644 1.365-.369l26.107 15c.479.275.645.886.369 1.365-.184.322-.521.502-.868.502zm-290.415-14.828c-.346 0-.683-.18-.867-.501-.276-.479-.111-1.09.367-1.366l26.092-15.028c.479-.276 1.09-.111 1.365.367.276.479.111 1.09-.367 1.366l-26.092 15.028c-.157.091-.329.134-.498.134zm238.201-15.172c-.169 0-.34-.043-.497-.133l-26.107-15c-.479-.275-.645-.886-.369-1.365.274-.479.885-.644 1.365-.369l26.107 15c.479.275.645.886.369 1.365-.185.321-.522.502-.868.502zm-186.017-14.883c-.346 0-.683-.18-.867-.501-.276-.479-.111-1.09.367-1.366l26.092-15.028c.479-.276 1.091-.111 1.365.367.276.479.111 1.09-.367 1.366l-26.092 15.028c-.157.091-.329.134-.498.134zm133.802-15.118c-.169 0-.34-.043-.497-.133l-26.107-15c-.479-.275-.645-.886-.369-1.365.274-.479.885-.644 1.365-.369l26.107 15c.479.275.645.886.369 1.365-.185.322-.522.502-.868.502zm-81.618-14.938c-.346 0-.683-.18-.867-.501-.276-.479-.111-1.09.367-1.366l9.903-5.704c5.572-3.201 11.914-4.898 18.34-4.907h.002c.552 0 .999.447 1 .999s-.446 1.001-.999 1.001c-6.078.009-12.076 1.614-17.346 4.641l-9.902 5.704c-.158.09-.33.133-.498.133z"/>
    <path d="m566.369 489.893c-.091 0-.182-.012-.272-.038-.531-.15-.841-.703-.69-1.234l79.489-281.643c.148-.533.705-.84 1.233-.691.531.15.841.703.691 1.234l-79.489 281.643c-.125.441-.527.729-.962.729z"/>
    <path d="m365.476 371.381c-.51 0-.945-.387-.994-.905-.053-.55.351-1.038.899-1.091l487.052-46.598c.575-.053 1.038.351 1.091.9.053.55-.351 1.038-.899 1.091l-487.052 46.598c-.033.004-.066.005-.097.005z"/>
    <path d="m577.477 154.349-192.57-110.642c-11.081-6.366-24.709-6.367-35.79-.001l-279.4 160.922c-5.965 3.426-5.988 12.023-.043 15.483l193.901 112.822c10.773 6.269 24.081 6.275 34.861.018l279.077-161.893c6.424-3.728 6.403-13.01-.036-16.709z"
          fill="#adc4cb"/>
    <path d="m281.022 338.639-.271-.001c-.553-.004-.997-.455-.993-1.007.004-.55.451-.993 1-.993h.007l.258.001c5.932 0 11.78-1.574 16.913-4.553l10.034-5.821c.48-.277 1.091-.114 1.367.363.277.478.114 1.09-.363 1.367l-10.034 5.821c-5.438 3.155-11.634 4.823-17.918 4.823zm-27.899-10.787c-.171 0-.344-.044-.502-.136l-26.025-15.143c-.478-.278-.639-.89-.361-1.367.277-.477.89-.639 1.367-.361l26.025 15.143c.478.278.64.89.361 1.367-.186.319-.521.497-.865.497zm81.394-14.83c-.345 0-.681-.179-.866-.498-.277-.478-.114-1.09.363-1.367l26.045-15.109c.479-.278 1.091-.114 1.367.363.277.478.114 1.09-.363 1.367l-26.045 15.109c-.158.091-.331.135-.501.135zm-133.444-15.456c-.171 0-.344-.044-.502-.136l-26.025-15.143c-.478-.278-.639-.89-.361-1.367s.89-.639 1.367-.361l26.025 15.143c.478.278.64.89.361 1.367-.185.319-.52.497-.865.497zm185.534-14.762c-.345 0-.681-.179-.866-.498-.277-.478-.114-1.09.363-1.367l26.045-15.109c.48-.277 1.091-.114 1.367.363.277.478.114 1.09-.363 1.367l-26.045 15.109c-.158.092-.331.135-.501.135zm-237.584-15.523c-.171 0-.344-.044-.502-.136l-26.025-15.143c-.478-.278-.639-.89-.361-1.367s.89-.639 1.367-.361l26.025 15.143c.478.278.639.89.361 1.367-.185.319-.52.497-.865.497zm289.674-14.694c-.345 0-.681-.179-.866-.498-.277-.478-.114-1.09.363-1.367l26.044-15.109c.48-.277 1.091-.114 1.367.363.277.478.114 1.09-.363 1.367l-26.044 15.109c-.158.092-.331.135-.501.135zm-341.725-15.592c-.171 0-.344-.044-.502-.136l-26.024-15.143c-.478-.278-.64-.89-.361-1.367.278-.477.891-.639 1.367-.361l26.024 15.143c.478.278.64.89.361 1.367-.185.319-.52.497-.865.497zm393.814-14.625c-.345 0-.681-.179-.866-.498-.277-.478-.114-1.09.363-1.367l26.045-15.109c.479-.277 1.091-.114 1.367.363.277.478.114 1.09-.363 1.367l-26.045 15.109c-.158.091-.331.135-.501.135zm-412.489-21.683c-.346 0-.683-.18-.867-.501-.276-.479-.111-1.09.367-1.366l26.092-15.028c.479-.276 1.091-.111 1.365.367.276.479.111 1.09-.367 1.366l-26.092 15.028c-.157.091-.329.134-.498.134zm464.579-8.534c-.345 0-.681-.179-.866-.498-.277-.478-.114-1.09.363-1.367l26.045-15.109c.48-.277 1.091-.114 1.367.363.277.478.114 1.09-.363 1.367l-26.045 15.109c-.159.091-.331.135-.501.135zm-412.396-21.521c-.346 0-.683-.18-.867-.501-.276-.479-.111-1.09.367-1.366l26.092-15.028c.479-.276 1.09-.111 1.365.367.276.479.111 1.09-.367 1.366l-26.092 15.028c-.157.091-.329.134-.498.134zm446.531-15.397.508-.862-.521.853-26.126-15.011c-.479-.275-.645-.886-.369-1.365.273-.479.884-.644 1.365-.369l26.107 15-.456.891zm-394.347-14.658c-.346 0-.683-.18-.867-.501-.276-.479-.111-1.09.367-1.366l26.092-15.028c.479-.276 1.091-.111 1.365.367.276.479.111 1.09-.367 1.366l-26.092 15.028c-.157.091-.329.134-.498.134zm342.597-15.228c-.169 0-.34-.043-.497-.133l-26.107-15c-.479-.275-.645-.886-.369-1.365.274-.479.885-.644 1.365-.369l26.107 15c.479.275.645.886.369 1.365-.184.322-.521.502-.868.502zm-290.414-14.828c-.346 0-.683-.18-.867-.501-.276-.479-.111-1.09.367-1.366l26.091-15.028c.479-.276 1.09-.111 1.365.367.276.479.111 1.09-.367 1.366l-26.091 15.028c-.157.091-.329.134-.498.134zm238.2-15.172c-.169 0-.34-.043-.497-.133l-26.107-15c-.479-.275-.645-.886-.369-1.365.274-.479.885-.644 1.365-.369l26.107 15c.479.275.645.886.369 1.365-.185.322-.522.502-.868.502zm-186.017-14.883c-.346 0-.683-.18-.867-.501-.276-.479-.111-1.09.367-1.366l26.092-15.028c.479-.276 1.091-.111 1.365.367.276.479.111 1.09-.367 1.366l-26.092 15.028c-.157.091-.329.134-.498.134zm133.802-15.118c-.169 0-.34-.043-.497-.133l-26.107-15c-.479-.275-.645-.886-.369-1.365.274-.479.885-.644 1.365-.369l26.107 15c.479.275.645.886.369 1.365-.185.322-.522.502-.868.502zm-81.618-14.937c-.346 0-.683-.18-.867-.501-.276-.479-.111-1.09.367-1.366l9.904-5.704c5.571-3.201 11.912-4.898 18.339-4.907h.002c.552 0 .999.447 1 .999s-.446 1.001-.998 1.001c-6.079.009-12.077 1.614-17.346 4.641l-9.903 5.704c-.158.09-.33.133-.498.133z"/>
    <path d="m280.872 329.556c-.091 0-.182-.012-.272-.038-.531-.15-.841-.703-.69-1.234l79.487-281.643c.15-.533.706-.84 1.234-.691.531.15.841.702.69 1.234l-79.487 281.643c-.125.441-.527.729-.962.729z"/>
    <path d="m79.979 211.045c-.51 0-.945-.387-.994-.905-.053-.55.351-1.038.899-1.091l487.051-46.598c.569-.054 1.039.351 1.091.9.053.55-.351 1.038-.899 1.091l-487.051 46.599c-.033.003-.066.004-.097.004z"/>
</svg>