<svg xmlns="http://www.w3.org/2000/svg" viewBox="0 0 2722 3000" width="2722" height="3000">
    <g transform="translate(257.77777777777777 621.1111111111111) rotate(0.0 633.8888888888889 671.6666666666667) scale(1.1101925994425101 1.1109530598900186)">
        <svg width="1141.944" height="1209.172" viewBox="0 0 1141.944 1209.172">
            <rect fill="#fff" height="1194.172" rx="60.585" width="1126.944" x="7.5" y="7.5"/>
            <g fill="#95ff80">
                <path d="M1073.86 1209.172H68.085c-37.542 0-68.085-30.543-68.085-68.085V68.085C0 30.543 30.543 0 68.085 0H1073.86c37.542 0 68.084 30.543 68.084 68.085v1073.003c0 37.542-30.542 68.085-68.084 68.085zM68.085 15C38.814 15 15 38.813 15 68.084v1073.003c0 29.271 23.814 53.085 53.085 53.085H1073.86c29.271 0 53.084-23.814 53.084-53.085V68.085c0-29.271-23.813-53.084-53.084-53.084H68.085z"/>
                <circle cx="236.051" cy="83.051" r="26.587"/>
                <circle cx="159.079" cy="83.051" r="26.587"/>
                <circle cx="82.106" cy="83.051" r="26.587"/>
            </g>
        </svg>
    </g>
    <g transform="translate(392.22222222222223 797.7777777777778) rotate(0.0 454.44444444444446 493.33333333333337) scale(1.1108177900320806 1.1100985212437606)">
        <svg width="818.216" height="888.81" viewBox="0 0 818.216 888.81">
            <g fill="#95ff80">
                <path d="M476.997 220.477a7.5 7.5 0 0 1-7.5-7.5V103.182a7.5 7.5 0 0 1 15 0v109.795a7.5 7.5 0 0 1-7.5 7.5zm0 572.652a7.5 7.5 0 0 1-7.5-7.5V675.823a7.5 7.5 0 0 1 15 0v109.806a7.5 7.5 0 0 1-7.5 7.5zm293.719-155.084H645.381a7.5 7.5 0 0 1 0-15h125.335c17.92 0 32.5-14.58 32.5-32.5V350.242c0-17.92-14.58-32.5-32.5-32.5H645.381a7.5 7.5 0 0 1 0-15h125.335c26.191 0 47.5 21.309 47.5 47.5v240.303c0 26.191-21.309 47.5-47.5 47.5zm-627.438-205.43a7.5 7.5 0 0 1-7.5-7.5v-74.873c0-26.191 21.308-47.5 47.5-47.5h125.335a7.5 7.5 0 0 1 0 15H183.278c-17.921 0-32.5 14.58-32.5 32.5v74.873a7.5 7.5 0 0 1-7.5 7.5zm165.335 205.43H183.278c-26.192 0-47.5-21.309-47.5-47.5v-74.873a7.5 7.5 0 0 1 15 0v74.873c0 17.92 14.579 32.5 32.5 32.5h125.335a7.5 7.5 0 0 1 0 15z"/>
                <path d="M476.997 415.006a7.497 7.497 0 0 1-3.751-1.005l-168.384-97.265a7.5 7.5 0 0 1 0-12.989l168.384-97.265a7.5 7.5 0 0 1 7.503 0l168.384 97.266a7.5 7.5 0 0 1 0 12.989l-168.384 97.265a7.5 7.5 0 0 1-3.751 1.005zm-153.39-104.765 153.39 88.604 153.39-88.604-153.39-88.604zm-54.551 212.931H17.5c-9.65 0-17.5-7.851-17.5-17.5v-70.557c0-9.65 7.85-17.5 17.5-17.5h251.556c9.65 0 17.5 7.851 17.5 17.5v70.557c0 9.649-7.85 17.5-17.5 17.5zM17.5 432.615a2.503 2.503 0 0 0-2.5 2.5v70.557c0 1.378 1.122 2.5 2.5 2.5h251.556c1.378 0 2.5-1.122 2.5-2.5v-70.557c0-1.378-1.122-2.5-2.5-2.5zm614.832 250.708h-310.67c-9.649 0-17.5-7.851-17.5-17.5v-70.557c0-9.649 7.851-17.5 17.5-17.5h310.67c9.649 0 17.5 7.851 17.5 17.5v70.557c0 9.649-7.851 17.5-17.5 17.5zm-310.67-90.557a2.503 2.503 0 0 0-2.5 2.5v70.557c0 1.378 1.122 2.5 2.5 2.5h310.67c1.378 0 2.5-1.122 2.5-2.5v-70.557c0-1.378-1.122-2.5-2.5-2.5z"/>
            </g>
            <path d="M610.289 110.681H343.706c-30.515 0-55.34-24.826-55.34-55.341S313.191 0 343.705 0h266.583c30.515 0 55.341 24.826 55.341 55.341s-24.826 55.34-55.34 55.34zM343.705 15c-22.244 0-40.34 18.097-40.34 40.34s18.097 40.341 40.34 40.341h266.583c22.244 0 40.34-18.097 40.34-40.34S632.531 15 610.288 15zm266.584 873.81H343.706c-30.515 0-55.34-24.825-55.34-55.34s24.826-55.341 55.34-55.341h266.583c30.515 0 55.34 24.826 55.34 55.341s-24.826 55.34-55.34 55.34zm-266.583-95.681c-22.244 0-40.34 18.097-40.34 40.341s18.097 40.34 40.34 40.34h266.583c22.244 0 40.34-18.096 40.34-40.34s-18.097-40.341-40.34-40.341z"
                  fill="#dea2ff"/>
        </svg>
    </g>
    <g transform="translate(1271.111111111111 337.77777777777777) rotate(0.0 556.1111111111112 1016.1111111111111) scale(1.1105541698590942 1.1105834473518172)">
        <svg width="1001.502" height="1829.869" viewBox="0 0 1001.502 1829.869">
            <rect fill="#1E284C" height="1814.869" rx="100" transform="matrix(-1 -0 0 -1 1075.793 1829.869)"
                  width="912.211" x="81.791" y="7.5"/>
            <path d="M894.002 1829.869H181.791c-59.276 0-107.5-48.224-107.5-107.5V107.5c0-59.276 48.224-107.5 107.5-107.5h712.211c59.276 0 107.5 48.224 107.5 107.5v1614.869c0 59.276-48.224 107.5-107.5 107.5zM181.791 15c-51.005 0-92.5 41.495-92.5 92.5v1614.869c0 51.005 41.495 92.5 92.5 92.5h712.211c51.005 0 92.5-41.495 92.5-92.5V107.5c0-51.005-41.495-92.5-92.5-92.5z"
                  fill="#1E284C"/>
            <rect fill="#DEA2FF" height="1814.869" rx="100" transform="matrix(-1 -0 0 -1 927.211 1829.869)"
                  width="912.211" x="7.5" y="7.5"/>
            <path d="M372.487 55.678h182.237c16.354 0 29.611 13.257 29.611 29.611S571.078 114.9 554.724 114.9H372.487c-16.354 0-29.611-13.257-29.611-29.611s13.257-29.611 29.611-29.611z"
                  fill="#1E284C"/>
            <path d="M554.724 122.4H372.487c-20.463 0-37.111-16.648-37.111-37.111s16.648-37.111 37.111-37.111h182.237c20.463 0 37.111 16.648 37.111 37.111S575.187 122.4 554.724 122.4zM372.487 63.178c-12.192 0-22.111 9.919-22.111 22.111s9.919 22.111 22.111 22.111h182.237c12.192 0 22.111-9.919 22.111-22.111s-9.919-22.111-22.111-22.111z"
                  fill="#1E284C"/>
            <g fill="#FFF">
                <path d="M431.887 1829.869a7.5 7.5 0 0 1-7.5-7.5v-99.821c0-17.921-14.58-32.5-32.5-32.5H101.786c-17.92 0-32.5 14.579-32.5 32.5v88.784a7.5 7.5 0 0 1-15 0v-88.784c0-26.192 21.309-47.5 47.5-47.5h290.101c26.191 0 47.5 21.308 47.5 47.5v99.821a7.5 7.5 0 0 1-7.5 7.5z"/>
                <path d="M201.607 1829.869a7.474 7.474 0 0 1-5.303-2.197L68.199 1699.567c-2.929-2.929-2.929-7.677 0-10.606s7.678-2.929 10.606 0l128.105 128.105a7.5 7.5 0 0 1 0 10.606 7.474 7.474 0 0 1-5.303 2.197zm90.459 0a7.474 7.474 0 0 1-5.303-2.197 7.5 7.5 0 0 1 0-10.606l128.104-128.105a7.5 7.5 0 0 1 10.606 0 7.5 7.5 0 0 1 0 10.606l-128.104 128.105a7.474 7.474 0 0 1-5.303 2.197zm203.305 0a7.5 7.5 0 0 1-7.5-7.5v-99.821c0-26.192 21.309-47.5 47.5-47.5h290.101c26.191 0 47.5 21.308 47.5 47.5v88.709a7.5 7.5 0 0 1-15 0v-88.709c0-17.921-14.58-32.5-32.5-32.5H535.371c-17.92 0-32.5 14.579-32.5 32.5v99.821a7.5 7.5 0 0 1-7.5 7.5z"/>
                <path d="M635.192 1829.869a7.474 7.474 0 0 1-5.303-2.197l-128.103-128.103c-2.929-2.929-2.929-7.677 0-10.606s7.678-2.929 10.606 0l128.103 128.103a7.5 7.5 0 0 1 0 10.606 7.474 7.474 0 0 1-5.303 2.197zm90.459 0a7.474 7.474 0 0 1-5.303-2.197 7.5 7.5 0 0 1 0-10.606l127.301-127.301a7.5 7.5 0 0 1 10.606 0 7.5 7.5 0 0 1 0 10.606l-127.301 127.301a7.474 7.474 0 0 1-5.303 2.197zm-333.764-595.855H101.786c-26.191 0-47.5-21.308-47.5-47.5v-290.1c0-26.192 21.309-47.5 47.5-47.5h290.101c26.191 0 47.5 21.308 47.5 47.5v290.1c0 26.192-21.309 47.5-47.5 47.5zM101.786 863.913c-17.92 0-32.5 14.579-32.5 32.5v290.1c0 17.921 14.58 32.5 32.5 32.5h290.101c17.92 0 32.5-14.579 32.5-32.5v-290.1c0-17.921-14.58-32.5-32.5-32.5z"/>
                <path d="M420.171 1222.298a7.474 7.474 0 0 1-5.303-2.197L68.199 873.432a7.5 7.5 0 0 1 10.606-10.607l346.669 346.669a7.5 7.5 0 0 1-5.303 12.804z"/>
                <path d="M73.502 1222.298a7.5 7.5 0 0 1-5.303-12.804l346.669-346.669a7.5 7.5 0 0 1 10.606 10.607L78.805 1220.101a7.478 7.478 0 0 1-5.303 2.197z"/>
            </g>
            <rect fill="#FFF" height="118.39" rx="59.195" width="370.055" x="61.644" y="1478.211"/>
            <path d="M372.505 1604.101H120.84c-36.776 0-66.695-29.919-66.695-66.695s29.919-66.695 66.695-66.695h251.665c36.776 0 66.695 29.919 66.695 66.695s-29.919 66.695-66.695 66.695zm-251.665-118.39c-28.505 0-51.695 23.19-51.695 51.695s23.19 51.695 51.695 51.695h251.665c28.505 0 51.695-23.19 51.695-51.695s-23.19-51.695-51.695-51.695zm131.381-192.516H61.644a7.5 7.5 0 0 1 0-15H252.22a7.5 7.5 0 0 1 0 15zm142.332 59.195H61.644a7.5 7.5 0 0 1 0-15h332.908a7.5 7.5 0 0 1 0 15zm-83.828 59.195H61.644a7.5 7.5 0 0 1 0-15h249.081a7.5 7.5 0 0 1 0 15zm514.747-177.571H535.371c-26.191 0-47.5-21.308-47.5-47.5v-290.1c0-26.192 21.309-47.5 47.5-47.5h290.101c26.191 0 47.5 21.308 47.5 47.5v290.1c0 26.192-21.309 47.5-47.5 47.5zm-290.101-370.1c-17.92 0-32.5 14.579-32.5 32.5v290.1c0 17.921 14.58 32.5 32.5 32.5h290.101c17.92 0 32.5-14.579 32.5-32.5v-290.1c0-17.921-14.58-32.5-32.5-32.5z"
                  fill="#FFF"/>
            <path d="M853.756 1222.298a7.474 7.474 0 0 1-5.303-2.197L501.786 873.434a7.5 7.5 0 0 1 10.606-10.607l346.667 346.667a7.5 7.5 0 0 1-5.303 12.804z"
                  fill="#FFF"/>
            <path d="M507.092 1222.292a7.5 7.5 0 0 1-5.303-12.804l346.664-346.663a7.5 7.5 0 0 1 10.606 10.607l-346.664 346.663a7.478 7.478 0 0 1-5.303 2.197z"
                  fill="#FFF"/>
            <rect fill="#FFF" height="118.39" rx="59.195" width="370.055" x="495.511" y="1478.211"/>
            <path d="M806.372 1604.101H554.706c-36.776 0-66.695-29.919-66.695-66.695s29.919-66.695 66.695-66.695h251.666c36.776 0 66.695 29.919 66.695 66.695s-29.919 66.695-66.695 66.695zm-251.666-118.39c-28.504 0-51.695 23.19-51.695 51.695s23.19 51.695 51.695 51.695h251.666c28.504 0 51.695-23.19 51.695-51.695s-23.19-51.695-51.695-51.695zm177.885-192.516h-237.08a7.5 7.5 0 0 1 0-15h237.08a7.5 7.5 0 0 1 0 15zm77.566 59.195H495.511a7.5 7.5 0 0 1 0-15h314.646a7.5 7.5 0 0 1 0 15zm-65.564 59.195H495.512a7.5 7.5 0 0 1 0-15h249.081a7.5 7.5 0 0 1 0 15zm-343.369-631.55H61.644a7.5 7.5 0 0 1 0-15h339.58a7.5 7.5 0 0 1 0 15z"
                  fill="#FFF"/>
            <path d="M919.711 680.792h-95.322c-26.191 0-47.5-21.308-47.5-47.5V422.604c0-26.192 21.309-47.5 47.5-47.5h95.322a7.5 7.5 0 0 1 0 15h-95.322c-17.92 0-32.5 14.579-32.5 32.5v210.688c0 17.921 14.58 32.5 32.5 32.5h95.322a7.5 7.5 0 0 1 0 15z"
                  fill="#95FF80"/>
            <path d="M919.711 525.426a7.474 7.474 0 0 1-5.303-2.197L790.802 399.623a7.5 7.5 0 0 1 10.606-10.607l123.606 123.606a7.5 7.5 0 0 1-5.303 12.804zM796.105 669.077a7.5 7.5 0 0 1-5.303-12.804l123.606-123.606a7.5 7.5 0 0 1 10.606 10.607L801.408 666.88a7.478 7.478 0 0 1-5.303 2.197zm-483.772 11.715H101.644c-26.191 0-47.5-21.308-47.5-47.5V422.604c0-26.192 21.309-47.5 47.5-47.5h210.688c26.191 0 47.5 21.308 47.5 47.5v210.688c0 26.192-21.309 47.5-47.5 47.5zM101.644 390.104c-17.92 0-32.5 14.579-32.5 32.5v210.688c0 17.921 14.58 32.5 32.5 32.5h210.688c17.92 0 32.5-14.579 32.5-32.5V422.604c0-17.921-14.58-32.5-32.5-32.5z"
                  fill="#95FF80"/>
            <path d="M340.511 668.971a7.474 7.474 0 0 1-5.303-2.197L68.057 399.624a7.5 7.5 0 0 1 10.606-10.607l267.15 267.15a7.5 7.5 0 0 1-5.303 12.804z"
                  fill="#95FF80"/>
            <path d="M73.36 669.077a7.5 7.5 0 0 1-5.303-12.804l267.15-267.15a7.5 7.5 0 0 1 10.606 10.607L78.663 666.88a7.478 7.478 0 0 1-5.303 2.197zm600.345 11.715H463.017c-26.191 0-47.5-21.308-47.5-47.5V422.604c0-26.192 21.309-47.5 47.5-47.5h210.688c26.191 0 47.5 21.308 47.5 47.5v210.688c0 26.192-21.309 47.5-47.5 47.5zM463.017 390.104c-17.92 0-32.5 14.579-32.5 32.5v210.688c0 17.921 14.58 32.5 32.5 32.5h210.688c17.92 0 32.5-14.579 32.5-32.5V422.604c0-17.921-14.58-32.5-32.5-32.5z"
                  fill="#95FF80"/>
            <path d="M701.883 668.971a7.474 7.474 0 0 1-5.303-2.197l-267.15-267.15a7.5 7.5 0 0 1 10.606-10.607l267.15 267.15a7.5 7.5 0 0 1-5.303 12.804z"
                  fill="#95FF80"/>
            <path d="M434.733 669.077a7.5 7.5 0 0 1-5.303-12.804l267.15-267.15a7.5 7.5 0 0 1 10.606 10.607l-267.15 267.15a7.478 7.478 0 0 1-5.303 2.197z"
                  fill="#95FF80"/>
            <path d="M68.574 293.021a7.501 7.501 0 0 1-7.447-6.605l-6.929-57.625a7.5 7.5 0 0 1 6.551-8.342A7.495 7.495 0 0 1 69.091 227l4.386 36.476 24.654-39.549a7.5 7.5 0 0 1 10.333-2.397 7.5 7.5 0 0 1 2.397 10.332l-35.922 57.625a7.501 7.501 0 0 1-6.364 3.533zm42.649 0a7.5 7.5 0 0 1-6.357-11.468l35.922-57.625a7.5 7.5 0 0 1 10.333-2.397 7.5 7.5 0 0 1 2.397 10.332l-35.922 57.625a7.496 7.496 0 0 1-6.372 3.534zm127.972 0a7.5 7.5 0 0 1-6.357-11.468l35.922-57.625a7.5 7.5 0 0 1 10.333-2.397 7.5 7.5 0 0 1 2.397 10.332l-35.922 57.625a7.496 7.496 0 0 1-6.372 3.534zm42.657 0a7.5 7.5 0 0 1-6.357-11.468l35.922-57.625a7.5 7.5 0 1 1 12.73 7.935l-35.922 57.625a7.496 7.496 0 0 1-6.372 3.534zm-127.972 0a7.5 7.5 0 0 1-6.357-11.468l35.922-57.625a7.502 7.502 0 0 1 13.814 3.097l4.25 36.356 24.594-39.453a7.5 7.5 0 0 1 12.73 7.935l-35.922 57.625a7.5 7.5 0 0 1-13.814-3.097l-4.25-36.356-24.594 39.453a7.495 7.495 0 0 1-6.372 3.533zm656.277 26.597c-34.689 0-62.91-28.221-62.91-62.91s28.221-62.91 62.91-62.91 62.91 28.221 62.91 62.91-28.221 62.91-62.91 62.91zm0-110.82c-26.418 0-47.91 21.492-47.91 47.91s21.492 47.91 47.91 47.91 47.91-21.492 47.91-47.91-21.492-47.91-47.91-47.91z"
                  fill="#FFF8F8"/>
            <circle cx="810.157" cy="243.543" fill="#FFF8F8" r="17.525"/>
            <path d="M810.157 312.118c15.781 0 30.009-6.608 40.101-17.195-.782-21.479-18.431-38.654-40.101-38.654s-39.319 17.175-40.101 38.654c10.092 10.587 24.32 17.195 40.101 17.195z"
                  fill="#FFF8F8"/>
            <path d="M819.711 1829.869H107.5c-59.276 0-107.5-48.224-107.5-107.5V107.5C0 48.224 48.224 0 107.5 0h712.211c59.276 0 107.5 48.224 107.5 107.5v1614.869c0 59.276-48.224 107.5-107.5 107.5zM107.5 15C56.495 15 15 56.495 15 107.5v1614.869c0 51.005 41.495 92.5 92.5 92.5h712.211c51.005 0 92.5-41.495 92.5-92.5V107.5c0-51.005-41.495-92.5-92.5-92.5z"
                  fill="#1E284C"/>
        </svg>
    </g>
    <g transform="translate(882.2222222222223 1133.3333333333335) rotate(0.0 486.11111111111114 766.6666666666667) scale(1.1105564674810664 1.1110209412955858)">
        <svg width="875.437" height="1380.112" viewBox="0 0 875.437 1380.112">
            <rect fill="#1E284C" height="1365.112" rx="50" width="860.437" x="7.5" y="7.5"/>
            <path d="M817.937 1380.112H57.5c-31.706 0-57.5-25.794-57.5-57.5V57.5C0 25.794 25.794 0 57.5 0h760.438c31.705 0 57.499 25.794 57.499 57.5v1265.112c0 31.706-25.794 57.5-57.5 57.5zM57.5 15C34.065 15 15 34.065 15 57.5v1265.112c0 23.435 19.065 42.5 42.5 42.5h760.438c23.435 0 42.5-19.065 42.5-42.5V57.5c0-23.435-19.065-42.5-42.5-42.5z"
                  fill="#1E284C"/>
            <g fill="#FFF">
                <circle cx="778.172" cy="97.142" r="30.719"/>
                <circle cx="689.237" cy="97.142" r="30.719"/>
                <circle cx="600.303" cy="97.142" r="30.719"/>
            </g>
            <path d="M715.344 240.025H433.737a7.5 7.5 0 0 1 0-15h281.607a7.5 7.5 0 0 1 0 15z" fill="#DEA2FF"/>
            <path d="M377.396 240.025H211.725a7.5 7.5 0 0 1 0-15h165.671a7.5 7.5 0 0 1 0 15z" fill="#95FF80"/>
            <path d="M152.985 240.025H99.61a7.5 7.5 0 0 1 0-15h53.375a7.5 7.5 0 0 1 0 15z" fill="#fff"/>
            <path d="M775.827 335.187H523.145a7.5 7.5 0 0 1 0-15h252.682a7.5 7.5 0 0 1 0 15z" fill="#95FF80"/>
            <path d="M464.392 335.187H211.724a7.5 7.5 0 0 1 0-15h252.668a7.5 7.5 0 0 1 0 15z" fill="#DEA2FF"/>
            <path d="M152.985 335.187H99.61a7.5 7.5 0 0 1 0-15h53.375a7.5 7.5 0 0 1 0 15z" fill="#fff"/>
            <path d="M775.827 430.35H679.39a7.5 7.5 0 0 1 0-15h96.437a7.5 7.5 0 0 1 0 15z" fill="#95FF80"/>
            <path d="M620.638 430.35H487.467a7.5 7.5 0 0 1 0-15h133.171a7.5 7.5 0 0 1 0 15z" fill="#DEA2FF"/>
            <path d="M428.713 430.35H270.477a7.5 7.5 0 0 1 0-15h158.236a7.5 7.5 0 0 1 0 15z" fill="#95FF80"/>
            <path d="M152.985 430.35H99.61a7.5 7.5 0 0 1 0-15h53.375a7.5 7.5 0 0 1 0 15z" fill="#fff"/>
            <path d="M625.83 525.513H406.772a7.5 7.5 0 0 1 0-15H625.83a7.5 7.5 0 0 1 0 15z" fill="#95FF80"/>
            <path d="M348.019 525.513h-77.542a7.5 7.5 0 0 1 0-15h77.542a7.5 7.5 0 0 1 0 15z" fill="#DEA2FF"/>
            <path d="M152.985 525.513H99.61a7.5 7.5 0 0 1 0-15h53.375a7.5 7.5 0 0 1 0 15z" fill="#fff"/>
            <path d="M775.827 620.675H657.895a7.5 7.5 0 0 1 0-15h117.932a7.5 7.5 0 0 1 0 15zm-176.684 0H270.464a7.5 7.5 0 0 1 0-15h328.679a7.5 7.5 0 0 1 0 15z"
                  fill="#DEA2FF"/>
            <path d="M152.985 620.675H99.61a7.5 7.5 0 0 1 0-15h53.375a7.5 7.5 0 0 1 0 15z" fill="#fff"/>
            <path d="M683.92 715.838H511.116a7.5 7.5 0 0 1 0-15H683.92a7.5 7.5 0 0 1 0 15z" fill="#95FF80"/>
            <path d="M452.363 715.838h-64.379a7.5 7.5 0 0 1 0-15h64.379a7.5 7.5 0 0 1 0 15z" fill="#DEA2FF"/>
            <path d="M152.985 715.838H99.61a7.5 7.5 0 0 1 0-15h53.375a7.5 7.5 0 0 1 0 15z" fill="#fff"/>
            <path d="M775.827 811.001H590.486a7.5 7.5 0 0 1 0-15h185.341a7.5 7.5 0 0 1 0 15z" fill="#DEA2FF"/>
            <path d="M531.733 811.001h-143.75a7.5 7.5 0 0 1 0-15h143.75a7.5 7.5 0 0 1 0 15z" fill="#95FF80"/>
            <path d="M152.985 811.001H99.61a7.5 7.5 0 0 1 0-15h53.375a7.5 7.5 0 0 1 0 15z" fill="#fff"/>
            <path d="M680.872 906.163H387.956a7.5 7.5 0 0 1 0-15h292.916a7.5 7.5 0 0 1 0 15z" fill="#95FF80"/>
            <path d="M152.985 906.163H99.61a7.5 7.5 0 0 1 0-15h53.375a7.5 7.5 0 0 1 0 15z" fill="#fff"/>
            <path d="M775.827 1001.326H585.799a7.5 7.5 0 0 1 0-15h190.028a7.5 7.5 0 0 1 0 15zm-248.768 0H387.983a7.5 7.5 0 0 1 0-15h139.076a7.5 7.5 0 0 1 0 15z"
                  fill="#DEA2FF"/>
            <path d="M152.985 1001.326H99.61a7.5 7.5 0 0 1 0-15h53.375a7.5 7.5 0 0 1 0 15z" fill="#fff"/>
            <path d="M725.629 1096.489H446.736a7.5 7.5 0 0 1 0-15h278.893a7.5 7.5 0 0 1 0 15z" fill="#95FF80"/>
            <path d="M152.985 1096.489H99.61a7.5 7.5 0 0 1 0-15h53.375a7.5 7.5 0 0 1 0 15z" fill="#fff"/>
            <path d="M775.827 1191.651H654.821a7.5 7.5 0 0 1 0-15h121.006a7.5 7.5 0 0 1 0 15zm-179.759 0H446.737a7.5 7.5 0 0 1 0-15h149.331a7.5 7.5 0 0 1 0 15z"
                  fill="#DEA2FF"/>
            <path d="M152.985 1191.651H99.61a7.5 7.5 0 0 1 0-15h53.375a7.5 7.5 0 0 1 0 15z" fill="#fff"/>
            <path d="M654.821 1286.814H447.008a7.5 7.5 0 0 1 0-15h207.813a7.5 7.5 0 0 1 0 15z" fill="#95FF80"/>
            <path d="M152.985 1286.814H99.61a7.5 7.5 0 0 1 0-15h53.375a7.5 7.5 0 0 1 0 15z" fill="#fff"/>
        </svg>
    </g>
</svg>