<svg xmlns="http://www.w3.org/2000/svg" viewBox="0 0 3000 2500" width="3000" height="2500">
    <g transform="translate(1956.25 312.5) rotate(0.0 431.875 398.125) scale(1.2495153833245571 1.2486239654258573)">
        <svg width="691.268" height="637.702" viewBox="0 0 691.268 637.702">
            <path d="M678.377 408.259c-26.572.741-40.804-7.351-43.422-25.098-2.76-18.861 8.78-36.148 35.696-52.677 3.225-1.902 5.033-5.048 4.309-7.462-3.196-13.512-28.564-45.413-41.128-51.571-2.557-1.259-6.481-.634-9.558 1.551-25.572 18.032-48.046 22.788-68.918 14.651-21.177-8.198-26.994-24.458-17.503-49.982 1.182-3.414-.539-6.464-4.245-6.959-27.616-3.907-56.907-3.69-86.771.726-4.045.549-7.711 3.572-8.486 7.086-5.081 23.278-19.641 39.627-43.138 48.829-28.19 10.99-49.548 6.991-65.757-12.496-2.148-2.432-6.309-2.746-9.983-.669-26.846 14.76-50.79 32.036-71.121 51.231-2.784 2.636-3.025 6.194-.673 8.267 17.188 15.605 18.775 32.562 5.124 51.571-13.531 18.925-33.288 27.677-60.546 27.014-3.658-.137-7.258 1.974-8.451 4.968-8.352 21.449-12.391 42.739-12.067 63.212-.019 2.763 2.594 4.696 6.213 4.581 25.898-1.064 41.245 6.485 46.813 22.75 5.648 16.797-2.341 31.61-24.157 45.435-2.886 1.815-3.795 4.711-2.296 6.825 11.297 15.186 26.058 28.284 43.785 38.997 2.334 1.467 6.018 1.188 8.725-.609 20.23-13.452 39.318-17.046 58.048-11.099 19.12 6.12 25.58 18.06 19.928 36.235-.708 2.378.997 4.45 4.108 4.858 23.379 2.59 47.856 2.367 72.775-.796.422-.024.822-.136 1.295-.272 2.61-.739 4.948-2.647 5.723-4.544.286-.61.485-1.001.545-1.353 4.509-15.63 19.792-29.061 39.663-34.969.198-.106.474-.187.675-.242 21.189-6.088 40.268-2.887 50.991 8.419 2.06 2.082 6.007 3.866 13.143.537 21.935-10.269 42.668-22.54 61.773-36.557.789-.626 1.577-1.248 2.312-1.756l.721-.607c2.718-2.076 3.335-4.896 1.744-6.643-11.979-12.118-12.068-25.407.304-40.631 15.166-18.942 36.161-28.139 63.993-28.073 3.426-.054 7.244-2.024 8.923-4.737 12.801-20.698 21.698-41.907 26.168-63.076.659-2.849-1.594-4.963-5.278-4.865zm-217.689-77.16c79.411.06 123.757 53.11 100.245 115.399-22.315 59.117-98.137 104.864-170.387 104.85-72.275-.014-119.006-45.817-103.658-104.976 16.172-62.336 94.357-115.332 173.8-115.272z"
                  fill="#DEA2FF"/>
            <path d="M365.486 637.702c-11.284 0-22.439-.607-33.405-1.822l-.15-.018c-3.92-.515-7.137-2.429-9.059-5.392-1.722-2.654-2.182-5.95-1.262-9.042 4.456-14.33.095-22.113-15.026-26.953-16.512-5.244-33.399-1.908-51.609 10.201-5.217 3.462-11.954 3.759-16.802.755-18.626-11.263-34.062-25.027-45.879-40.913l-.1-.137a11.276 11.276 0 0 1-1.874-8.802c.696-3.502 2.932-6.596 6.294-8.71 24.661-15.628 23.82-28.429 21.041-36.696-2.784-8.134-9.923-18.85-39.396-17.646-4.188.125-7.895-1.204-10.516-3.761-2.256-2.201-3.499-5.131-3.505-8.26-.332-21.5 3.9-43.701 12.578-65.988 2.397-6.016 8.856-9.995 15.721-9.742 24.842.603 42.082-6.984 54.164-23.881 11.41-15.887 10.163-28.723-4.035-41.629-2.577-2.296-4.029-5.449-4.09-8.886-.068-3.826 1.572-7.521 4.619-10.406 20.878-19.713 45.324-37.326 72.665-52.358 6.725-3.804 14.66-2.885 19.218 2.276l.145.169c13.982 16.81 32.178 20.083 57.266 10.304 21.374-8.37 33.982-22.581 38.535-43.44 1.461-6.628 7.548-11.934 14.806-12.919 30.442-4.501 60.358-4.748 88.83-.719 3.905.521 7.3 2.646 9.256 5.82 1.97 3.197 2.343 7.213 1.025 11.02l-.057.159c-10.104 27.17.993 35.657 13.181 40.375 18.353 7.153 38.591 2.642 61.888-13.787 5.354-3.802 12.11-4.652 17.193-2.15 14.363 7.039 41.205 40.652 45.071 56.395 1.563 5.696-1.567 12.146-7.69 15.789-23.927 14.705-34.445 29.481-32.149 45.168 1.346 9.123 6.62 19.506 35.792 18.687h.008c4.339-.107 8.219 1.505 10.626 4.451 2.151 2.632 2.943 6.095 2.179 9.514-4.601 21.757-13.724 43.766-27.116 65.419-3.008 4.863-9.109 8.195-15.183 8.291-.045 0-.09.002-.136 0h-.276c-25.314 0-44.237 8.264-57.845 25.261-12.387 15.242-7.366 24.055-.825 30.671.072.073.143.147.212.224 2.067 2.27 3.052 5.217 2.774 8.3-.316 3.503-2.214 6.773-5.351 9.229l-.606.51c-.182.153-.37.296-.565.431-.563.389-1.311.982-1.913 1.46a6.058 6.058 0 0 1-.225.171c-19.477 14.291-40.684 26.841-63.029 37.303-12.118 5.653-19.18.446-21.654-2.054l-.111-.114c-8.787-9.264-24.993-11.654-43.366-6.404a7.436 7.436 0 0 1-.721.255c-17.169 5.105-30.693 16.725-34.532 29.645-.25 1.033-.637 1.855-.933 2.482l-.034.071c-1.721 3.967-5.824 7.364-10.527 8.696-.581.167-1.463.42-2.574.519-13.759 1.739-27.45 2.609-40.959 2.609zm-28.332-16.373c21.922 2.155 44.64 1.772 67.583-1.14l.051-.006.12-.034c.44-.125.832-.39 1.02-.558l.087-.186.043-.092c5.201-17.917 22.132-33.161 44.265-39.877.469-.187.898-.315 1.255-.415 23.776-6.833 45.598-2.957 58.341 10.383.291.244 1.804.319 4.627-.998 21.411-10.024 41.733-22.045 60.394-35.725.394-.313.773-.611 1.147-.898-8.849-10.635-14.188-26.77 2.663-47.504 16.604-20.738 39.355-30.843 69.511-30.843h.227c1.007-.036 2.304-.744 2.631-1.2 11.601-18.758 19.748-37.727 24.242-56.433h-.154c-28.552 0-44.583-10.603-47.673-31.548-3.262-22.289 9.558-41.965 39.191-60.162l.114-.069c.208-.123.38-.248.518-.364-3.802-12.012-26.3-40.047-36.587-45.354-.368.006-1.262.177-2.153.81-27.75 19.569-52.599 24.642-75.985 15.525-17.088-6.615-34.653-21.853-22.774-56.871-26.274-3.438-53.804-3.071-81.923 1.086-1.159.158-2.118.969-2.283 1.362-5.599 25.677-21.657 43.917-47.704 54.117-30.772 11.996-55.556 7.28-73.692-14.012a3.09 3.09 0 0 0-1.09.392c-25.838 14.207-48.884 30.725-68.597 49.154 18.205 17.716 19.716 38.332 4.326 59.763-15.018 21.003-36.867 30.867-66.82 30.136-.611-.025-1.161.236-1.367.416-7.528 19.388-11.394 38.666-11.485 57.299 28.291-.821 46.025 8.552 52.638 27.87 6.627 19.71-1.92 37.523-25.392 53.006 10.321 13.098 23.519 24.565 39.279 34.123.234-.012.625-.099.929-.3 21.924-14.579 43.615-18.617 64.464-11.998 21.31 6.821 30.414 21.338 26.014 41.145zm68.699-1.141-.002.009.002-.009zm-.604-.046h-.01zm.512-.177-.004.01.004-.01zm50.681-26.86-.015.008a.11.11 0 0 0 .015-.008zm-210.359-.418.006.003-.006-.003zm7.313-261.698zm-.758-2.929.006.006-.006-.006zm279.971-89.915h.006-.006zM390.582 558.846h-.036c-41.773-.008-77.197-14.836-97.188-40.681-15.86-20.504-20.736-46.67-13.729-73.679 8.324-32.086 31.859-62.411 66.268-85.388 34.286-22.895 75.002-35.5 114.657-35.5h.141c44.14.033 80.5 16.041 99.758 43.917 15.976 23.125 18.639 52.116 7.498 81.63-23.221 61.519-101.128 109.701-177.369 109.701zm69.972-220.249c-36.724 0-74.479 11.708-106.327 32.975-30.89 20.627-52.788 48.576-60.079 76.68-5.899 22.74-2.07 43.742 11.074 60.735 17.13 22.146 48.23 34.851 85.326 34.858h.031c69.256 0 142.521-44.852 163.337-99.998 9.351-24.772 7.289-48.854-5.806-67.808-16.418-23.766-48.285-37.413-87.428-37.443h-.129z"
                  fill="#DEA2FF"/>
            <g fill="#DEA2FF">
                <path d="M351.627 93.371c-.937-1.571-3.169-2.197-5.446-1.503-19 5.707-32.328 2.937-40.759-8.503-8.59-11.589-6.46-24.603 6.669-39.779 1.701-2.043 1.762-4.636-.026-6.006-13.293-10.385-28.86-18.423-46.193-23.749-2.342-.758-5.291.314-6.856 2.546-10.386 14.869-23.684 22.283-39.558 22.154-19.183-.191-29.594-9.129-31.858-27.615-.351-2.34-2.541-3.76-5.287-3.346-20.028 2.743-39.508 8.158-57.822 16.062-2.524 1.094-3.938 3.595-3.345 5.778 4.174 16.288-1.013 29.09-15.702 39.071-14.713 10.038-29.399 10.807-45.05 2.403-2.088-1.167-4.988-.648-6.813 1.23-13.013 13.575-23.512 28.396-31.171 43.971-1.075 2.091-.26 4.316 1.942 5.276 15.8 6.666 22.016 16.802 19.129 30.773-3.054 14.454-13.496 23.563-31.934 28.024-2.446.582-4.124 2.568-4.045 4.636.888 15.024 4.685 29.428 11.205 42.806.837 1.805 3.164 2.62 5.492 1.972 17.32-4.841 30.068-2.307 38.927 7.527 9.004 10.054 8.318 21.148-1.928 33.834-1.327 1.675-1.101 3.773.595 4.948 12.901 8.432 27.449 14.916 43.27 19.18.257.095.532.115.86.136 1.802.126 3.876-.737 5.031-2.012.393-.4.653-.652.818-.911 8.384-10.971 22.153-17.265 35.747-16.476.152-.028.34-.016.475-.005 14.328.999 24.071 8.566 26.162 20.134.434 2.154 2.048 4.58 7.286 3.903 16.031-2.098 31.961-6.026 47.455-11.681.654-.268 1.305-.534 1.887-.726l.608-.271c2.22-.862 3.524-2.84 3.237-4.584-2.513-12.335 1.963-22.387 13.941-30.546 14.663-10.132 29.147-11.418 44.193-4.043 1.866.859 4.567.402 6.356-1.166 13.573-11.898 25.118-25.093 34.222-39.319 1.251-1.892.73-4.017-1.248-4.916-14.323-6.483-19.301-16.127-15.011-29.648 4.55-14.297 16.109-23.571 35.376-28.137 2.271-.488 4.188-2.234 4.56-4.135 2.521-10.392-.781-39.594-5.392-47.29zm-95.049 105.906c-32.245 37.97-90.82 52.22-132.262 32.557-42.094-19.973-52.385-68.118-21.542-108.344 31.81-41.488 94.165-57.728 137.698-35.417 42.82 21.945 49.333 72.078 16.106 111.204z"/>
                <path d="M179.771 307.445c-8.021 0-11.991-5.199-12.966-10.033a3.563 3.563 0 0 1-.028-.149c-1.458-8.066-8.388-13.147-19.03-13.966-.22.007-.44.004-.661-.009-11.162-.649-22.349 4.482-29.241 13.396-.492.696-.992 1.203-1.406 1.623l-.056.057c-2.717 2.904-6.997 4.588-10.981 4.318a10.345 10.345 0 0 1-2.477-.427c-16.417-4.445-31.636-11.205-45.235-20.094l-.167-.112c-2.508-1.736-4.129-4.312-4.567-7.252-.447-3.005.392-6.03 2.362-8.518 9.954-12.324 6.947-18.898 2.222-24.175-4.335-4.813-12.317-10.619-31.322-5.307-5.876 1.636-11.862-.867-14.274-5.955C4.971 216.52.958 201.178.016 185.238a8.249 8.249 0 0 1-.008-.157c-.216-5.676 3.907-10.813 9.804-12.217 20.426-4.942 24.813-15.082 26.333-22.278 1.51-7.31.951-15.707-14.707-22.313-3.079-1.342-5.309-3.688-6.36-6.638-1.035-2.903-.812-6.063.627-8.906 8.01-16.278 18.932-31.688 32.462-45.803 4.177-4.299 10.798-5.383 15.811-2.629 13.102 7.022 24.937 6.384 37.24-2.01 12.131-8.243 16.038-17.795 12.673-30.975-1.528-5.762 1.736-12.011 7.618-14.56C140.468 8.569 160.565 2.984 181.252.147c3.094-.454 6.159.163 8.633 1.74a11.382 11.382 0 0 1 5.158 8.118c1.81 14.78 8.905 20.872 24.488 21.027 13.471.101 24.352-6.089 33.333-18.949 3.414-4.87 9.813-7.132 15.248-5.409 18.137 5.579 34.478 13.988 48.568 24.996 2.313 1.772 3.802 4.411 4.135 7.386.362 3.234-.718 6.634-2.962 9.33l-.091.107c-13.772 15.92-10.609 24.612-6.315 30.405 4.04 5.482 11.797 12.025 32.576 5.786 5.544-1.689 11.332.298 14.044 4.842 5.967 9.977 9.003 41.165 6.273 52.764-1.017 4.758-5.09 8.679-10.211 9.817-16.643 3.955-26.144 11.296-29.899 23.099-2.594 8.176-1.725 14.801 10.957 20.541 2.916 1.325 5.071 3.783 5.924 6.749.866 3.011.329 6.315-1.474 9.077-9.39 14.667-21.358 28.421-35.573 40.881-4.019 3.523-9.82 4.463-14.435 2.34a8.454 8.454 0 0 1-.166-.079c-12.61-6.18-24.25-5.075-36.629 3.479-9.437 6.428-12.772 13.475-10.856 22.878.019.092.036.186.051.278.86 5.225-2.376 10.536-7.715 12.711l-.474.212c-.23.103-.465.193-.704.272-.358.118-.954.363-1.39.542a7.249 7.249 0 0 1-.278.108c-16.024 5.849-32.528 9.91-49.053 12.072-.926.12-1.808.176-2.645.176zm-32.031-39.162c.329 0 .615.017.848.036 16.682 1.163 28.924 10.283 32.452 24.001 15.19-2.03 30.381-5.785 45.149-11.164l.569-.231c-1.811-14.11 4.096-25.907 17.591-35.099 16.388-11.326 33.363-13.077 50.438-5.188 11.685-10.326 21.685-21.564 29.783-33.464-18.245-10.298-18.181-25.333-14.635-36.509 5.305-16.67 18.773-27.763 40.04-32.984 1.482-8.924-.94-29.797-3.734-38.027-21.057 5.779-36.806 1.799-46.856-11.839-10.357-13.972-8.686-29.663 4.97-46.661-11.698-8.563-25-15.213-39.65-19.83-11.686 16.397-26.764 24.71-44.828 24.711-.16 0-.319 0-.48-.002-21.706-.216-35.013-10.793-38.697-30.653-17.887 2.671-35.271 7.543-51.741 14.502 3.907 18.377-2.577 33.442-19.298 44.805-16.549 11.289-33.871 12.465-51.498 3.495-11.155 11.78-20.344 24.517-27.336 37.894 20.705 10.219 22.41 25.923 20.001 37.58-3.546 16.784-15.533 27.978-35.65 33.322a104.737 104.737 0 0 0 9.086 34.82c19.013-4.799 33.958-1.345 44.437 10.284 7.55 8.43 13.5 22.006 1.05 39.95 11.034 6.688 23.189 11.894 36.209 15.502 9.776-12.66 25.611-20.011 41.501-19.246.097-.003.19-.004.28-.004zm-42.286 19.953-.009.014.009-.014zm-.048-.095-.011.012.011-.012zm2.24-.118.017.006-.017-.006zm39.827-4.745c.007 0 .016 0 .026.002l-.026-.002zm1.421-.104-.018.003.018-.003zM25.508 224.439l.004.009-.004-.009zm-12.186-36.991-.01.002a.036.036 0 0 0 .01-.002zm336.338-48.233v.005-.005zm-1.294-40.172-.006.002c.002 0 .004 0 .006-.002zm-3.175-1.821.005.008-.002-.003c0-.002-.002-.003-.003-.005zM56.736 77.432l.005.002-.005-.002zm250.711-33.941.055.043a9.45 9.45 0 0 0-.055-.043zM128.383 27.444l.003.011-.003-.011zm37.333 220.748c-15.635 0-30.932-3.088-44.616-9.581-21.693-10.293-36.504-27.825-41.703-49.366-5.634-23.343.554-48.315 17.424-70.317 16.421-21.417 40.758-37.161 68.53-44.332 27.987-7.226 55.88-4.811 78.541 6.804 21.39 10.962 35.559 28.995 39.897 50.777 4.782 24.012-3.053 50.239-21.495 71.956-23.906 28.151-61.103 44.06-96.578 44.06zm31.191-162.577c-32.752 0-67.567 15.553-88.183 42.439-14.06 18.337-19.296 38.818-14.746 57.671 4.115 17.051 16.031 31.02 33.551 39.333 38.247 18.146 93.572 4.399 123.33-30.636 15.459-18.204 22.1-39.825 18.217-59.317-3.424-17.196-14.798-31.528-32.026-40.358-12.104-6.203-25.932-9.133-40.144-9.133zm59.669 113.663h.01z"/>
            </g>
        </svg>
    </g>
    <g transform="translate(133.75 316.25) rotate(0.0 687.5 398.125) scale(1.2496376050945226 1.2486220074235186)">
        <svg width="1100.319" height="637.703" viewBox="0 0 1100.319 637.703">
            <path d="M284.033 630.203h758.786c28.067 0 50.636-23.097 49.987-51.157l-11.868-512.934c-.754-32.588-27.388-58.612-59.984-58.612H57.553c-35.75 0-59.949 36.43-46.09 69.384l217.263 516.58c9.362 22.261 31.158 36.739 55.307 36.739z"
                  fill="#fff"/>
            <g fill="#95ff80">
                <path d="M1042.819 637.703H284.033c-27.238 0-51.661-16.224-62.221-41.331L4.549 79.792a57.375 57.375 0 0 1 5.108-54.108A57.374 57.374 0 0 1 57.553 0h963.401c17.736 0 34.489 6.826 47.175 19.222 12.685 12.395 19.897 28.986 20.307 46.717l11.868 512.934c.361 15.606-5.448 30.35-16.359 41.516-10.91 11.165-25.515 17.315-41.126 17.315zM57.553 15c-14.484 0-27.387 6.92-35.401 18.984s-9.39 26.641-3.775 39.993l217.262 516.58a52.388 52.388 0 0 0 48.394 32.146h758.786c11.538 0 22.333-4.545 30.397-12.798s12.358-19.15 12.091-30.686l-11.868-512.934c-.654-28.279-24.199-51.286-52.486-51.286h-963.4z"/>
                <path d="M201.254 83.178c4.731 13.482 18.629 24.313 31.086 24.313s18.938-10.83 14.436-24.313c-4.548-13.619-18.553-24.761-31.239-24.761s-19.061 11.142-14.282 24.761zm-70.811 0c5.086 13.482 19.27 24.313 31.727 24.313s18.652-10.83 13.795-24.313c-4.907-13.619-19.206-24.761-31.892-24.761s-18.767 11.142-13.629 24.761zm-70.811 0C65.074 96.66 79.543 107.491 92 107.491s18.367-10.83 13.154-24.313c-5.266-13.619-19.859-24.761-32.545-24.761S54.136 69.559 59.633 83.178zm76.093 104.211c4.864 12.458 18.483 22.47 30.46 22.47s17.948-10.012 13.295-22.47c-4.698-12.58-18.423-22.868-30.612-22.868-12.19 0-18.054 10.288-13.143 22.868zm741.895 7.5H649.863a7.5 7.5 0 0 1 0-15H877.62a7.5 7.5 0 0 1 0 15zm-273.668 0H452.894a7.5 7.5 0 0 1 0-15h151.058a7.5 7.5 0 0 1 0 15zm-199.007 0h-179.28a7.5 7.5 0 0 1 0-15h179.28a7.5 7.5 0 0 1 0 15zm574.92 84.062H773.708a7.5 7.5 0 0 1 0-15h206.157a7.5 7.5 0 0 1 0 15zm-252.549 0H603.951a7.5 7.5 0 0 1 0-15h123.365a7.5 7.5 0 0 1 0 15zm-169.247 0H380.458a7.5 7.5 0 0 1 0-15h177.611a7.5 7.5 0 0 1 0 15zm-223.479 0h-79.033a7.5 7.5 0 0 1 0-15h79.033a7.5 7.5 0 0 1 0 15zm489.873 78.758H708.795a7.5 7.5 0 0 1 0-15h115.668a7.5 7.5 0 0 1 0 15zm-160.878 0H472.347a7.5 7.5 0 0 1 0-15h191.238a7.5 7.5 0 0 1 0 15zm-237.118 0H283.563a7.5 7.5 0 0 1 0-15h142.904a7.5 7.5 0 0 1 0 15zm-198.3 66.442c4.015 10.282 16.069 18.551 26.957 18.551 10.887 0 16.625-8.269 12.784-18.551-3.874-10.373-16.008-18.85-27.07-18.85s-16.721 8.477-12.671 18.85zm761.703 7.5H861.453a7.5 7.5 0 0 1 0-15H989.87a7.5 7.5 0 0 1 0 15zm-171.965 0H576.642a7.5 7.5 0 0 1 0-15h241.263a7.5 7.5 0 0 1 0 15zm-284.81 0h-62.429a7.5 7.5 0 0 1 0-15h62.429a7.5 7.5 0 0 1 0 15zm-106.628 0h-116.61a7.5 7.5 0 0 1 0-15h116.61a7.5 7.5 0 0 1 0 15zm567.96 69.554H771.786a7.5 7.5 0 0 1 0-15h222.641a7.5 7.5 0 0 1 0 15zm-265.353 0H556.097a7.5 7.5 0 0 1 0-15h172.977a7.5 7.5 0 0 1 0 15zm-215.304 0H334.59a7.5 7.5 0 0 1 0-15h179.18a7.5 7.5 0 0 1 0 15zm413.171 65.546H657.959a7.5 7.5 0 0 1 0-15h268.982a7.5 7.5 0 0 1 0 15zm-309.955 0H447.79a7.5 7.5 0 0 1 0-15h169.196a7.5 7.5 0 0 1 0 15zm-210.239 0h-48.85a7.5 7.5 0 0 1 0-15h48.85a7.5 7.5 0 0 1 0 15z"/>
            </g>
        </svg>
    </g>
    <g transform="translate(740.0 492.5) rotate(0.0 824.375 900.0) scale(1.250393414152292 1.2501241442726605)">
        <svg width="1318.585" height="1439.857" viewBox="0 0 1318.585 1439.857">
            <path d="M154.771 650.087h1009.112v722.27c0 33.115-26.885 60-60 60H214.771c-33.115 0-60-26.885-60-60z"
                  fill="#fff"/>
            <g fill="#1e284c">
                <path d="M1103.883 1439.857H214.771c-37.22 0-67.5-30.281-67.5-67.5v-722.27a7.5 7.5 0 0 1 7.5-7.5h1009.112a7.5 7.5 0 0 1 7.5 7.5v722.27c0 37.219-30.28 67.5-67.5 67.5zm-941.612-782.27v714.77c0 28.948 23.551 52.5 52.5 52.5h889.112c28.949 0 52.5-23.552 52.5-52.5v-714.77z"/>
                <path d="M328.794 868.861h-93.406a7.5 7.5 0 0 1-7.5-7.5v-93.406a7.5 7.5 0 0 1 7.5-7.5h93.406a7.5 7.5 0 0 1 7.5 7.5v93.406a7.5 7.5 0 0 1-7.5 7.5zm-85.906-15h78.406v-78.406h-78.406z"/>
                <path d="M422.2 868.861h-93.405a7.5 7.5 0 0 1-7.5-7.5v-93.406a7.5 7.5 0 0 1 7.5-7.5H422.2a7.5 7.5 0 0 1 7.5 7.5v93.406a7.5 7.5 0 0 1-7.5 7.5zm-85.905-15H414.7v-78.406h-78.405z"/>
                <path d="M515.605 868.861h-93.406a7.5 7.5 0 0 1-7.5-7.5v-93.406a7.5 7.5 0 0 1 7.5-7.5h93.406a7.5 7.5 0 0 1 7.5 7.5v93.406a7.5 7.5 0 0 1-7.5 7.5zm-85.906-15h78.406v-78.406h-78.406z"/>
                <path d="M609.01 868.861h-93.405a7.5 7.5 0 0 1-7.5-7.5v-93.406a7.5 7.5 0 0 1 7.5-7.5h93.405a7.5 7.5 0 0 1 7.5 7.5v93.406a7.5 7.5 0 0 1-7.5 7.5zm-85.905-15h78.405v-78.406h-78.405z"/>
                <path d="M702.416 868.861H609.01a7.5 7.5 0 0 1-7.5-7.5v-93.406a7.5 7.5 0 0 1 7.5-7.5h93.406a7.5 7.5 0 0 1 7.5 7.5v93.406a7.5 7.5 0 0 1-7.5 7.5zm-85.906-15h78.406v-78.406H616.51z"/>
                <path d="M795.821 868.861h-93.405a7.5 7.5 0 0 1-7.5-7.5v-93.406a7.5 7.5 0 0 1 7.5-7.5h93.405a7.5 7.5 0 0 1 7.5 7.5v93.406a7.5 7.5 0 0 1-7.5 7.5zm-85.905-15h78.405v-78.406h-78.405z"/>
                <path d="M889.227 868.861h-93.406a7.5 7.5 0 0 1-7.5-7.5v-93.406a7.5 7.5 0 0 1 7.5-7.5h93.406a7.5 7.5 0 0 1 7.5 7.5v93.406a7.5 7.5 0 0 1-7.5 7.5zm-85.906-15h78.406v-78.406h-78.406z"/>
                <path d="M982.632 868.861h-93.406a7.5 7.5 0 0 1-7.5-7.5v-93.406a7.5 7.5 0 0 1 7.5-7.5h93.406a7.5 7.5 0 0 1 7.5 7.5v93.406a7.5 7.5 0 0 1-7.5 7.5zm-85.906-15h78.406v-78.406h-78.406z"/>
                <path d="M1076.037 868.861h-93.405a7.5 7.5 0 0 1-7.5-7.5v-93.406a7.5 7.5 0 0 1 7.5-7.5h93.405a7.5 7.5 0 0 1 7.5 7.5v93.406a7.5 7.5 0 0 1-7.5 7.5zm-85.905-15h78.405v-78.406h-78.405zM328.794 962.266h-93.406a7.5 7.5 0 0 1-7.5-7.5V861.36a7.5 7.5 0 0 1 7.5-7.5h93.406a7.5 7.5 0 0 1 7.5 7.5v93.406a7.5 7.5 0 0 1-7.5 7.5zm-85.906-15h78.406V868.86h-78.406z"/>
                <path d="M422.2 962.266h-93.405a7.5 7.5 0 0 1-7.5-7.5V861.36a7.5 7.5 0 0 1 7.5-7.5H422.2a7.5 7.5 0 0 1 7.5 7.5v93.406a7.5 7.5 0 0 1-7.5 7.5zm-85.905-15H414.7V868.86h-78.405z"/>
                <path d="M515.605 962.266h-93.406a7.5 7.5 0 0 1-7.5-7.5V861.36a7.5 7.5 0 0 1 7.5-7.5h93.406a7.5 7.5 0 0 1 7.5 7.5v93.406a7.5 7.5 0 0 1-7.5 7.5zm-85.906-15h78.406V868.86h-78.406z"/>
                <path d="M609.01 962.266h-93.405a7.5 7.5 0 0 1-7.5-7.5V861.36a7.5 7.5 0 0 1 7.5-7.5h93.405a7.5 7.5 0 0 1 7.5 7.5v93.406a7.5 7.5 0 0 1-7.5 7.5zm-85.905-15h78.405V868.86h-78.405z"/>
                <path d="M702.416 962.266H609.01a7.5 7.5 0 0 1-7.5-7.5V861.36a7.5 7.5 0 0 1 7.5-7.5h93.406a7.5 7.5 0 0 1 7.5 7.5v93.406a7.5 7.5 0 0 1-7.5 7.5zm-85.906-15h78.406V868.86H616.51z"/>
                <path d="M795.821 962.266h-93.405a7.5 7.5 0 0 1-7.5-7.5V861.36a7.5 7.5 0 0 1 7.5-7.5h93.405a7.5 7.5 0 0 1 7.5 7.5v93.406a7.5 7.5 0 0 1-7.5 7.5zm-85.905-15h78.405V868.86h-78.405z"/>
                <path d="M889.227 962.266h-93.406a7.5 7.5 0 0 1-7.5-7.5V861.36a7.5 7.5 0 0 1 7.5-7.5h93.406a7.5 7.5 0 0 1 7.5 7.5v93.406a7.5 7.5 0 0 1-7.5 7.5zm-85.906-15h78.406V868.86h-78.406z"/>
                <path d="M1076.037 962.266H889.226a7.5 7.5 0 0 1-7.5-7.5v-93.405a7.5 7.5 0 0 1 7.5-7.5h186.811a7.5 7.5 0 0 1 7.5 7.5v93.405a7.5 7.5 0 0 1-7.5 7.5zm-179.311-15h171.811v-78.405H896.726zm-567.932 108.406h-93.406a7.5 7.5 0 0 1-7.5-7.5v-93.405a7.5 7.5 0 0 1 7.5-7.5h93.406a7.5 7.5 0 0 1 7.5 7.5v93.405a7.5 7.5 0 0 1-7.5 7.5zm-85.906-15h78.406v-78.405h-78.406z"/>
                <path d="M422.2 1055.672h-93.405a7.5 7.5 0 0 1-7.5-7.5v-93.405a7.5 7.5 0 0 1 7.5-7.5H422.2a7.5 7.5 0 0 1 7.5 7.5v93.405a7.5 7.5 0 0 1-7.5 7.5zm-85.905-15H414.7v-78.405h-78.405z"/>
                <path d="M515.605 1055.672h-93.406a7.5 7.5 0 0 1-7.5-7.5v-93.405a7.5 7.5 0 0 1 7.5-7.5h93.406a7.5 7.5 0 0 1 7.5 7.5v93.405a7.5 7.5 0 0 1-7.5 7.5zm-85.906-15h78.406v-78.405h-78.406z"/>
                <path d="M795.821 1055.672H515.605a7.5 7.5 0 0 1-7.5-7.5v-93.406a7.5 7.5 0 0 1 7.5-7.5h280.216a7.5 7.5 0 0 1 7.5 7.5v93.406a7.5 7.5 0 0 1-7.5 7.5zm-272.716-15h265.216v-78.406H523.105z"/>
                <path d="M889.227 1055.672h-93.406a7.5 7.5 0 0 1-7.5-7.5v-93.405a7.5 7.5 0 0 1 7.5-7.5h93.406a7.5 7.5 0 0 1 7.5 7.5v93.405a7.5 7.5 0 0 1-7.5 7.5zm-85.906-15h78.406v-78.405h-78.406z"/>
                <path d="M982.632 1055.672h-93.406a7.5 7.5 0 0 1-7.5-7.5v-93.405a7.5 7.5 0 0 1 7.5-7.5h93.406a7.5 7.5 0 0 1 7.5 7.5v93.405a7.5 7.5 0 0 1-7.5 7.5zm-85.906-15h78.406v-78.405h-78.406z"/>
                <path d="M1076.037 1055.672h-93.405a7.5 7.5 0 0 1-7.5-7.5v-93.405a7.5 7.5 0 0 1 7.5-7.5h93.405a7.5 7.5 0 0 1 7.5 7.5v93.405a7.5 7.5 0 0 1-7.5 7.5zm-85.905-15h78.405v-78.405h-78.405z"/>
                <circle cx="1029.335" cy="709.021" r="24.88"/>
                <path d="M823.644 1383.146H487.783c-20.677 0-37.5-16.823-37.5-37.5v-210.208c0-20.677 16.823-37.5 37.5-37.5h335.861c20.677 0 37.5 16.823 37.5 37.5v210.208c0 20.677-16.823 37.5-37.5 37.5zm-335.861-270.208c-12.406 0-22.5 10.094-22.5 22.5v210.208c0 12.406 10.094 22.5 22.5 22.5h335.861c12.406 0 22.5-10.094 22.5-22.5v-210.208c0-12.406-10.094-22.5-22.5-22.5zm676.1-462.851H154.177L9.391 82.326C-.283 44.389 28.38 7.5 67.531 7.5h1183.524c39.173 0 67.839 36.927 58.126 74.877z"/>
                <path d="M1163.883 657.587H154.177a7.5 7.5 0 0 1-7.267-5.647L2.124 84.18c-5.188-20.342-.775-41.517 12.105-58.094C27.11 9.508 46.537 0 67.531 0h1183.524c21.005 0 40.439 9.516 53.32 26.108s17.281 37.779 12.073 58.128l-145.298 567.71a7.5 7.5 0 0 1-7.266 5.64zm-1003.879-15h998.056l143.854-562.069c4.051-15.827.628-32.306-9.39-45.211S1267.39 15 1251.053 15H67.531c-16.328 0-31.439 7.395-41.457 20.288s-13.45 29.363-9.415 45.185l143.346 562.114z"/>
            </g>
            <path d="M1205.668 84.654c2.988-13.871 17.075-25.227 31.433-25.227s23.321 11.356 20.052 25.227c-3.234 13.721-17.243 24.736-31.322 24.736s-23.119-11.015-20.163-24.736zm-90.782 0c2.493-13.871 16.173-25.227 30.532-25.227s23.727 11.356 20.953 25.227c-2.744 13.721-16.36 24.736-30.438 24.736s-23.512-11.015-21.046-24.736zm-90.782 0c1.997-13.871 15.272-25.227 29.631-25.227s24.133 11.356 21.854 25.227c-2.254 13.721-15.476 24.736-29.555 24.736s-23.906-11.015-21.93-24.736z"
                  fill="#fff"/>
            <path d="M1149.868 464.144H722.581a7.502 7.502 0 0 1-7.497-7.723l8.888-299.147a7.5 7.5 0 0 1 7.497-7.277h486.202a7.5 7.5 0 0 1 7.314 9.158l-67.804 299.147a7.499 7.499 0 0 1-7.314 5.842zm-419.561-15h413.57l64.404-284.147H738.75z"
                  fill="#95ff80"/>
            <path d="M1149.861 464.145a7.466 7.466 0 0 1-4.356-1.399L727.107 163.599a7.5 7.5 0 0 1 8.724-12.202l418.398 299.147a7.5 7.5 0 0 1-4.368 13.601z"
                  fill="#95ff80"/>
            <path d="M722.588 464.145a7.5 7.5 0 0 1-3.885-13.921l495.09-299.147c3.545-2.142 8.156-1.005 10.298 2.541s1.005 8.156-2.541 10.298L726.46 463.063a7.466 7.466 0 0 1-3.872 1.082z"
                  fill="#95ff80"/>
            <path d="M94.099 172.146c-2.972-12.93 5.831-23.512 19.691-23.512 13.859 0 27.312 10.582 30.022 23.512 2.681 12.795-6.189 23.07-19.788 23.07s-26.984-10.275-29.925-23.07z"
                  fill="#fff"/>
            <path d="M608.685 179.646H380.744a7.5 7.5 0 0 1 0-15h227.941a7.5 7.5 0 0 1 0 15z" fill="#95ff80"/>
            <path d="M333.242 179.646H207.671a7.5 7.5 0 0 1 0-15h125.571a7.5 7.5 0 0 1 0 15z" fill="#fff"/>
            <path d="M644.397 242.362H449.605a7.5 7.5 0 0 1 0-15h194.792a7.5 7.5 0 0 1 0 15zm-242.294 0H219.182a7.5 7.5 0 0 1 0-15h182.921a7.5 7.5 0 0 1 0 15z"
                  fill="#dea2ff"/>
            <path d="M519.175 301.953H344.954a7.5 7.5 0 0 1 0-15h174.221a7.5 7.5 0 0 1 0 15z" fill="#95ff80"/>
            <path d="M297.452 301.953H230.12a7.5 7.5 0 0 1 0-15h67.332a7.5 7.5 0 0 1 0 15z" fill="#fff"/>
            <path d="M135.238 351.145c-2.553-11.108 5.767-20.193 18.607-20.193s25.152 9.085 27.48 20.193c2.305 11.001-6.069 19.841-18.684 19.841s-24.874-8.84-27.402-19.841z"
                  fill="#95ff80"/>
            <path d="M645.064 358.645h-75.366a7.5 7.5 0 0 1 0-15h75.366a7.5 7.5 0 0 1 0 15z" fill="#fff"/>
            <path d="M522.196 358.645H407.35a7.5 7.5 0 0 1 0-15h114.846a7.5 7.5 0 0 1 0 15z" fill="#dea2ff"/>
            <path d="M359.849 358.645H240.527a7.5 7.5 0 0 1 0-15h119.322a7.5 7.5 0 0 1 0 15z" fill="#fff"/>
            <path d="M645.374 412.647h-54.572a7.5 7.5 0 0 1 0-15h54.572a7.5 7.5 0 0 1 0 15z" fill="#95ff80"/>
            <path d="M543.3 412.647H339.903a7.5 7.5 0 0 1 0-15H543.3a7.5 7.5 0 0 1 0 15z" fill="#fff"/>
            <path d="M292.401 412.647h-41.963a7.5 7.5 0 0 1 0-15h41.963a7.5 7.5 0 0 1 0 15zm-132.916 43.997c-2.321-10.1 5.703-18.356 17.942-18.356s23.891 8.257 26.008 18.356c2.097 10.006-5.974 18.051-18.009 18.051s-23.641-8.044-25.94-18.051z"
                  fill="#dea2ff"/>
            <path d="M645.669 464.144h-93.945a7.5 7.5 0 0 1 0-15h93.945a7.5 7.5 0 0 1 0 15z" fill="#fff"/>
            <path d="M504.222 464.144H259.89a7.5 7.5 0 0 1 0-15h244.332a7.5 7.5 0 0 1 0 15z" fill="#95ff80"/>
            <path d="M567.051 513.307H378.982a7.5 7.5 0 0 1 0-15h188.069a7.5 7.5 0 0 1 0 15z" fill="#dea2ff"/>
            <path d="M331.48 513.307h-62.565a7.5 7.5 0 0 1 0-15h62.565a7.5 7.5 0 0 1 0 15z" fill="#fff"/>
            <path d="M646.221 560.292H500.282a7.5 7.5 0 0 1 0-15h145.939a7.5 7.5 0 0 1 0 15z" fill="#dea2ff"/>
            <path d="M452.78 560.292H277.539a7.5 7.5 0 0 1 0-15H452.78a7.5 7.5 0 0 1 0 15z" fill="#95ff80"/>
            <path d="M574.539 605.239H285.788a7.5 7.5 0 0 1 0-15h288.751a7.5 7.5 0 0 1 0 15zm450.239-91.932H721.12a7.5 7.5 0 0 1 0-15h303.658a7.5 7.5 0 0 1 0 15zm103.297 46.985h-169.05a7.5 7.5 0 0 1 0-15h169.05a7.5 7.5 0 0 1 0 15zm-226.926 0H719.724a7.5 7.5 0 0 1 0-15h181.425a7.5 7.5 0 0 1 0 15zm-84.883 44.947h-97.877a7.5 7.5 0 0 1 0-15h97.877a7.5 7.5 0 0 1 0 15zm154.499 0h-97.877a7.5 7.5 0 0 1 0-15h97.877a7.5 7.5 0 0 1 0 15zm109.17 0h-52.548a7.5 7.5 0 0 1 0-15h52.548a7.5 7.5 0 0 1 0 15z"
                  fill="#fff"/>
        </svg>
    </g>
    <g transform="translate(257.5 1253.75) rotate(0.0 231.25 451.25) scale(1.2487074190770096 1.2499238273567816)">
        <svg width="370.383" height="722.044" viewBox="0 0 370.383 722.044">
            <rect fill="#1E284C" height="707.044" rx="40" width="355.383" x="7.5" y="7.5"/>
            <path d="M47.5 7.5h275.383c22.077 0 40 17.923 40 40v257.737H7.5V47.5c0-22.077 17.924-40 40-40z"
                  fill="#FFF"/>
            <ellipse cx="82.689" cy="127.251" fill="#DEA2FF" rx="29.615" ry="29.856"/>
            <path d="M276.999 145.047 154.737 255.414l-69.25-53.077L7.5 267.415v37.822h355.383v-92.61z" fill="#95FF80"/>
            <path d="M362.883 312.737H7.5a7.5 7.5 0 0 1-7.5-7.5v-37.823c0-2.224.987-4.333 2.695-5.759l77.987-65.077a7.502 7.502 0 0 1 9.368-.194l64.296 49.279 117.628-106.184a7.5 7.5 0 0 1 9.663-.327l85.884 67.58a7.5 7.5 0 0 1 2.862 5.894v92.61a7.5 7.5 0 0 1-7.5 7.5zM15 297.737h340.383v-81.468l-78.053-61.418L159.762 260.98a7.499 7.499 0 0 1-9.588.385l-64.489-49.427-70.686 58.985v26.813z"
                  fill="#95FF80"/>
            <rect fill="#FFF" height="50.039" rx="25.019" width="298.7" x="35.842" y="352.008"/>
            <rect fill="#FFF" height="50.039" rx="25.019" width="298.7" x="35.842" y="432.903"/>
            <g fill="#95FF80">
                <path d="M127.216 630.91a7.474 7.474 0 0 1-5.303-2.197l-36.532-36.532a7.497 7.497 0 0 1 0-10.606l39.853-39.853a7.5 7.5 0 0 1 10.606 0 7.5 7.5 0 0 1 0 10.606l-34.55 34.55 31.229 31.229a7.5 7.5 0 0 1 0 10.606 7.474 7.474 0 0 1-5.303 2.197zm115.951 0a7.474 7.474 0 0 1-5.303-2.197 7.5 7.5 0 0 1 0-10.606l31.229-31.229-34.55-34.55a7.5 7.5 0 0 1 0-10.606 7.5 7.5 0 0 1 10.606 0l39.853 39.853a7.497 7.497 0 0 1 0 10.606l-36.532 36.532a7.478 7.478 0 0 1-5.303 2.197zm-79.232 17.272c-.893 0-1.799-.16-2.683-.499a7.499 7.499 0 0 1-4.319-9.687l42.51-110.925a7.502 7.502 0 0 1 9.688-4.32 7.499 7.499 0 0 1 4.319 9.687l-42.51 110.925a7.503 7.503 0 0 1-7.005 4.818z"/>
            </g>
            <path d="M242.117 692.98H128.266a7.5 7.5 0 0 1 0-15h113.851a7.5 7.5 0 0 1 0 15zM220.69 34.421h-70.997c-6.371 0-11.536 5.165-11.536 11.536s5.165 11.536 11.536 11.536h70.997c6.371 0 11.536-5.165 11.536-11.536s-5.165-11.536-11.536-11.536z"
                  fill="#1E284C"/>
            <path d="M322.883 722.044H47.5c-26.191 0-47.5-21.308-47.5-47.5V47.5C0 21.308 21.309 0 47.5 0h275.383c26.192 0 47.5 21.308 47.5 47.5v627.044c0 26.192-21.309 47.5-47.5 47.5zM47.5 15C29.58 15 15 29.579 15 47.5v627.044c0 17.921 14.58 32.5 32.5 32.5h275.383c17.92 0 32.5-14.579 32.5-32.5V47.5c0-17.921-14.58-32.5-32.5-32.5z"
                  fill="#1E284C"/>
        </svg>
    </g>
    <g transform="translate(481.25 221.25) rotate(0.0 370.0 297.5) scale(1.2486859268033808 1.2480466496764517)">
        <svg width="592.623" height="476.745" viewBox="0 0 592.623 476.745">
            <path d="M525.116 469.245H196.214c-39.89 0-75.129-25.979-86.928-64.083L10.226 85.247C-1.728 46.643 27.128 7.5 67.541 7.5h390.825c46.256 0 85.153 34.701 90.41 80.658l35.95 314.268c4.073 35.606-23.773 66.819-59.611 66.819z"
                  fill="#DEA2FF"/>
            <path d="M143.855 460.174a7.468 7.468 0 0 1-4.98-1.895 7.5 7.5 0 0 1-.623-10.588l60.206-67.735c-40.829-30.692-72.228-72.425-85.649-119.036-14.021-48.694-7.333-95.776 18.788-133.212L14.325 38.386a7.5 7.5 0 0 1 9.089-11.933l117.385 89.41c14.008-16.236 31.504-29.255 52.13-38.774 24.583-11.345 52.388-17.098 82.642-17.098 55.986 0 111.762 19.814 157.61 55.89l80.281-90.32a7.5 7.5 0 0 1 11.211 9.965l-79.961 89.96c18.995 16.754 34.938 35.696 47.478 56.424 14.707 24.31 23.962 49.854 27.51 75.923 6.081 44.686-5.996 86.963-34.005 119.042-.295.337-.591.674-.889 1.009l88.034 67.054a7.5 7.5 0 0 1-9.089 11.933l-89.549-68.208c-13.217 12.145-28.7 22.016-46.207 29.437-23.329 9.89-49.073 14.905-76.518 14.905-49.787 0-99.303-16.658-140.708-44.321l-61.306 68.971a7.482 7.482 0 0 1-5.608 2.518zm76.872-82.693c38.596 25.317 84.543 40.525 130.75 40.525 43.078 0 82.406-13.898 110.554-38.612l-50.271-38.291c-18.842 16.973-45.21 26.515-74.146 26.515-30.171 0-59.879-9.877-84.691-26.359l-32.195 36.221zm-77.186-240.674c-23.178 33.585-28.99 75.957-16.319 119.963 12.652 43.937 42.424 83.253 81.126 112.058l32.425-36.48c-23.282-18.826-40.792-43.836-47.935-71.636-7.245-28.197-2.978-55.409 11.985-77.227l-61.283-46.678zm278.534 193.299 50.757 38.661c.526-.58 1.047-1.166 1.562-1.756 25.119-28.769 35.93-66.823 30.441-107.154-6.366-46.776-32.644-90.171-70.104-123.142l-39.592 44.543c24.043 21.276 39.718 48.109 44.438 76.351 4.493 26.889-1.718 52.507-17.501 72.497zm-158.891-.392c22.134 14.276 48.296 22.905 74.429 22.905 24.107 0 46.019-7.46 61.961-20.795l-82.447-62.798-53.943 60.689zm63.938-71.933 83.019 63.234c13.242-16.662 18.439-38.205 14.641-60.934-4.261-25.501-19.038-49.202-39.72-67.486l-57.94 65.185zm-110.345-65.192c-12.126 18.109-15.479 40.766-9.409 64.39 6.309 24.556 22.349 46.979 43.572 63.933l54.222-61.002-88.384-67.321zm9.575-11.563 88.803 67.64 58.152-65.424c-23.167-16.567-51.632-26.787-80.464-26.787-27.154 0-50.377 8.655-66.491 24.571zm-73.597-56.058 61.581 46.905c18.919-19.441 46.969-30.419 78.507-30.419 31.838 0 63.771 10.748 90.6 30.384l39.726-44.694C381.885 95.026 329.398 74.99 275.571 74.99c-51.383 0-94.586 17.669-122.816 49.977z"
                  fill="#FFF"/>
            <path d="M525.115 476.745H196.214c-21.185 0-41.396-6.645-58.449-19.215s-29.377-29.913-35.644-50.15L3.061 87.466C-3.348 66.765.35 44.889 13.209 27.446S45.871 0 67.541 0h390.825c50.097 0 92.169 37.533 97.863 87.305l35.95 314.268c2.184 19.093-3.901 38.268-16.694 52.607s-31.152 22.564-50.369 22.564zM67.541 15c-16.854 0-32.257 7.781-42.258 21.347S12.405 66.928 17.39 83.028l99.06 319.915c10.89 35.171 42.945 58.802 79.764 58.802h328.902c14.947 0 29.226-6.397 39.176-17.55s14.683-26.067 12.984-40.917l-35.95-314.269c-4.827-42.193-40.492-74.01-82.959-74.01H67.541z"
                  fill="#1E284C"/>
        </svg>
    </g>
    <g transform="translate(2411.25 1615.0) rotate(-31.050788238057752 184.375 301.25) scale(1.2490854154246382 1.2499299831752164)">
        <svg width="295.216" height="482.027" viewBox="0 0 295.216 482.027">
            <rect fill="#DEA2FF" height="467.027" rx="140.108" width="280.216" x="7.5" y="7.5"/>
            <g fill="#1E284C">
                <path d="M147.608 482.027C66.217 482.027 0 415.811 0 334.419V147.608C0 66.217 66.216 0 147.608 0s147.608 66.217 147.608 147.608v186.811c0 81.391-66.216 147.608-147.608 147.608zm0-467.027C74.488 15 15 74.488 15 147.608v186.811c0 73.12 59.488 132.608 132.608 132.608s132.608-59.488 132.608-132.608V147.608C280.216 74.488 220.728 15 147.608 15z"/>
                <path d="M287.716 191.247H7.5a7.5 7.5 0 0 1 0-15h280.216a7.5 7.5 0 0 1 0 15z"/>
                <path d="M147.608 191.247a7.5 7.5 0 0 1-7.5-7.5V7.5a7.5 7.5 0 0 1 15 0v176.247a7.5 7.5 0 0 1-7.5 7.5z"/>
                <rect height="68.386" rx="12.232" width="24.464" x="135.376" y="68.658"/>
                <path d="M147.608 144.544c-10.88 0-19.732-8.852-19.732-19.732V80.889c0-10.88 8.852-19.732 19.732-19.732s19.732 8.852 19.732 19.732v43.923c0 10.88-8.852 19.732-19.732 19.732zm0-68.386a4.738 4.738 0 0 0-4.732 4.732v43.923c0 2.609 2.123 4.732 4.732 4.732s4.732-2.123 4.732-4.732V80.89a4.738 4.738 0 0 0-4.732-4.732z"/>
            </g>
        </svg>
    </g>
</svg>