<svg xmlns="http://www.w3.org/2000/svg" viewBox="0 0 3000 2400" width="3000" height="2400"><g transform="translate(1771.2 190.79999999999998) rotate(0.0 522.6 557.4) scale(1.1989208336009838 1.1989945997919935)"><svg width="871.784" height="929.779" viewBox="0 0 871.784 929.779"><g fill="#95ff80"><path d="M814.283 929.779H57.5c-31.706 0-57.5-25.794-57.5-57.5V57.5C0 25.794 25.794 0 57.5 0h756.784c31.705 0 57.499 25.794 57.499 57.5v814.779c0 31.706-25.794 57.5-57.5 57.5zM57.5 15C34.065 15 15 34.065 15 57.5v814.779c0 23.435 19.065 42.5 42.5 42.5h756.784c23.435 0 42.5-19.065 42.5-42.5V57.5c0-23.435-19.065-42.5-42.5-42.5z"/><circle cx="650.791" cy="77.991" r="25.739"/><circle cx="725.309" cy="77.991" r="25.739"/><circle cx="799.827" cy="77.991" r="25.739"/><circle cx="116.982" cy="780.333" r="61.531"/><path d="M685.875 841.864H182.738c-7.532 0 35.724-10.566 35.724-15.609v-51.661c0-5.044 6.162-9.17 13.694-9.17h453.719c7.532 0 13.694 4.127 13.694 9.17v58.1c0 5.044-6.162 9.17-13.694 9.17z"/><path d="M685.875 849.364H182.738c-5.354 0-7.811-3.505-8.287-6.506-1.027-6.474 5.256-8.737 7.938-9.704 2.053-.74 4.78-1.627 7.938-2.656 5.497-1.789 16.095-5.24 20.635-7.5v-48.405c0-9.348 9.31-16.67 21.194-16.67h453.719c11.885 0 21.194 7.322 21.194 16.67v58.101c0 9.348-9.31 16.67-21.194 16.67zm-464.718-15h464.718c3.398 0 5.633-1.319 6.194-2.005v-57.432c-.561-.686-2.796-2.004-6.194-2.004H232.156c-3.398 0-5.633 1.319-6.194 2.004v51.327c0 3.544-1.909 6.077-4.804 8.109z"/><circle cx="764.035" cy="631.05" r="61.531"/><path d="M192.296 692.581h506.388c7.581 0-35.955-10.478-35.955-15.48v-51.232c0-5.002-6.202-9.094-13.783-9.094h-456.65c-7.581 0-13.783 4.092-13.783 9.094v57.617c0 5.002 6.202 9.094 13.783 9.094z"/><path d="M698.684 700.081H192.296c-11.934 0-21.283-7.289-21.283-16.594V625.87c0-9.305 9.349-16.594 21.283-16.594h456.65c11.934 0 21.283 7.289 21.283 16.594v47.933c4.587 2.247 15.241 5.664 20.771 7.438 3.176 1.019 5.92 1.899 7.984 2.632 2.696.957 9.011 3.198 7.996 9.687-.471 3.008-2.926 6.521-8.295 6.521zm-3.042-1.429h.01zM186.014 683.1c.564.639 2.704 1.982 6.283 1.982h467.567c-3.294-2.288-4.634-4.723-4.634-7.98v-50.844c-.564-.639-2.704-1.982-6.283-1.982H192.296c-3.579 0-5.719 1.343-6.283 1.982V683.1z"/><circle cx="116.982" cy="234.242" r="61.531"/><path d="M687.57 392.11H230.462c-10.752 0-19.5-8.748-19.5-19.5v-27.127c0-10.752 8.748-19.5 19.5-19.5H687.57c10.752 0 19.5 8.748 19.5 19.5v27.127c0 10.752-8.748 19.5-19.5 19.5zm-457.108-51.127c-2.439 0-4.5 2.061-4.5 4.5v27.127c0 2.439 2.061 4.5 4.5 4.5H687.57c2.439 0 4.5-2.061 4.5-4.5v-27.127c0-2.439-2.061-4.5-4.5-4.5zM687.57 528.816H230.462c-10.752 0-19.5-8.748-19.5-19.5v-76.93c0-10.752 8.748-19.5 19.5-19.5H687.57c10.752 0 19.5 8.748 19.5 19.5v76.93c0 10.752-8.748 19.5-19.5 19.5zm-457.108-100.93c-2.439 0-4.5 2.061-4.5 4.5v76.93c0 2.439 2.061 4.5 4.5 4.5H687.57c2.439 0 4.5-2.061 4.5-4.5v-76.93c0-2.439-2.061-4.5-4.5-4.5zm455.413-123.232H182.738c-5.028 0-7.556-3.282-8.191-6.092-1.379-6.093 4.164-9.025 6.827-10.435 2.085-1.103 4.847-2.421 8.046-3.947 5.522-2.635 17.906-8.543 21.542-11.743v-73.868c0-11.546 9.508-20.939 21.194-20.939h453.719c11.687 0 21.194 9.393 21.194 20.939v85.146c0 11.546-9.508 20.939-21.194 20.939zm-473.997-15h473.997c3.416 0 6.194-2.664 6.194-5.939v-85.146c0-3.275-2.779-5.939-6.194-5.939H232.156c-3.416 0-6.194 2.664-6.194 5.939v75.71c0 5.704-4.408 9.97-14.083 15.376z"/></g></svg></g><g transform="translate(2154.0 1137.6) rotate(0.0 288.0 243.60000000000002) scale(1.19902329560712 1.1980612653907348)"><svg width="480.391" height="406.657" viewBox="0 0 480.391 406.657"><path d="M377.898 406.594c-22.533 0-48.908-5.804-78.922-17.402-42.327-16.355-83.337-40.854-107.839-55.492-7.668-4.581-13.726-8.2-17.97-10.488-35.968-19.392-74.014-25.178-113.077-17.201-29.372 5.998-48.355 17.968-48.544 18.088a7.504 7.504 0 0 1-10.356-2.273 7.494 7.494 0 0 1 2.255-10.351c.846-.544 21.081-13.393 53-20.027 29.438-6.121 74.819-7.867 123.84 18.562 4.535 2.445 10.718 6.139 18.545 10.814 46.89 28.012 156.698 93.616 216.044 62.774 24.234-12.592 42.312-35.591 48.36-61.522 4.885-20.945 1.288-41.674-9.869-56.869-29.906-40.731-95.695-33.903-159.318-27.302-67.332 6.988-136.957 14.214-167.694-35.053-23.632-37.876-15.99-82.602-11.425-109.323.864-5.059 1.611-9.427 2.026-12.99 4.685-40.147-20.958-67.576-21.218-67.849-2.852-2.992-2.752-7.736.232-10.597 2.984-2.859 7.714-2.774 10.582.203 1.261 1.309 30.831 32.6 25.302 79.98-.462 3.959-1.239 8.509-2.14 13.777-4.478 26.212-11.246 65.823 9.365 98.858 25.779 41.318 87.779 34.883 153.419 28.072 67.826-7.039 137.962-14.317 172.957 33.345 13.753 18.73 18.268 43.936 12.386 69.153-7.03 30.141-27.983 56.842-56.052 71.426-12.43 6.459-27.095 9.686-43.892 9.687Z" style="fill:#1e284c"/></svg></g><g transform="translate(255.6 832.8) rotate(0.0 417.59999999999997 181.20000000000005) scale(1.1984674769332317 1.199682203389831)"><svg width="696.89" height="302.08" viewBox="0 0 696.89 302.08"><g fill="#dea2ff"><path d="M552.777 302.08a7.495 7.495 0 0 1-4.894-1.815l-72.11-62.051H60.718C27.238 238.214 0 210.976 0 177.495V60.718C0 27.238 27.238 0 60.718 0h575.453c33.481 0 60.719 27.238 60.719 60.718v116.777c0 33.48-27.238 60.719-60.719 60.719h-86.523l10.494 54.96a7.499 7.499 0 0 1-7.365 8.907zM60.718 15C35.509 15 15 35.509 15 60.718v116.777c0 25.209 20.509 45.719 45.718 45.719h417.838c1.795 0 3.531.644 4.892 1.815l57.93 49.849-8.164-42.758a7.5 7.5 0 0 1 7.366-8.907h95.59c25.209 0 45.719-20.509 45.719-45.719V60.718C681.889 35.509 661.38 15 636.17 15z"/><circle cx="111.723" cy="118.913" r="58.711" transform="matrix(.22974399 -.9732511 .9732511 .22974399 -29.677 200.326)"/><path d="M111.723 178.124c-32.649 0-59.211-26.562-59.211-59.212s26.562-59.211 59.211-59.211 59.211 26.562 59.211 59.211-26.562 59.212-59.211 59.212zm0-117.423c-32.098 0-58.211 26.113-58.211 58.211s26.113 58.212 58.211 58.212 58.211-26.114 58.211-58.212-26.114-58.211-58.211-58.211zm532.156 36.593H206.065a7.5 7.5 0 0 1 0-15h437.814a7.5 7.5 0 0 1 0 15zm-128.764 59.237h-309.05a7.5 7.5 0 0 1 0-15h309.05a7.5 7.5 0 0 1 0 15z"/></g></svg></g><g transform="translate(704.4 571.1999999999999) rotate(0.0 894.5999999999999 681.0) scale(1.1998165270501893 1.1996004854770834)"><svg width="1491.228" height="1135.378" viewBox="0 0 1491.228 1135.378"><rect fill="#dea2ff" height="681.104" rx="35" width="973.393" x="258.053" y="7.5"/><path d="M1196.446 696.104H293.052c-23.435 0-42.5-19.065-42.5-42.5V42.5c0-23.435 19.066-42.5 42.5-42.5h903.394c23.435 0 42.5 19.065 42.5 42.5v611.104c0 23.435-19.065 42.5-42.5 42.5zM293.052 15c-15.164 0-27.5 12.337-27.5 27.5v611.104c0 15.164 12.336 27.5 27.5 27.5h903.394c15.164 0 27.5-12.336 27.5-27.5V42.5c0-15.163-12.336-27.5-27.5-27.5z" fill="#1e284c"/><path d="M1231.459 660.956h-971.69a5.384 5.384 0 0 1-.763 2.748l-241.307 401.83a5.41 5.41 0 0 0-.252 5.065l25.541 54.358c.84 1.787 2.582 2.92 4.49 2.92h1396.273c1.908 0 3.65-1.133 4.49-2.92l25.541-54.358a5.414 5.414 0 0 0-.252-5.065l-241.307-401.83a5.382 5.382 0 0 1-.763-2.748z" fill="#fff"/><path d="M1443.751 1135.378H47.477c-4.787 0-9.214-2.838-11.278-7.231l-25.541-54.358a12.863 12.863 0 0 1 .611-12.115L252.296 660.31a7.5 7.5 0 0 1 7.472-6.853h971.689a7.5 7.5 0 0 1 7.472 6.853l241.027 401.364a12.869 12.869 0 0 1 .611 12.115l-25.541 54.358c-2.064 4.393-6.491 7.231-11.278 7.231zm-1394.628-15h1392.983l24.41-51.953-240.189-399.968H264.901L24.712 1068.425l24.411 51.953zm1189.836-459.451h.01z" fill="#1e284c"/><rect fill="#1e284c" height="68.87" rx="34.435" width="1476.228" x="7.5" y="1058.138"/><path d="M1449.293 1134.508H41.935c-23.123 0-41.935-18.812-41.935-41.935s18.812-41.935 41.935-41.935h1407.359c23.123 0 41.935 18.812 41.935 41.935s-18.812 41.935-41.935 41.935zm-1407.358-68.87c-14.852 0-26.935 12.083-26.935 26.935s12.083 26.935 26.935 26.935h1407.359c14.852 0 26.935-12.083 26.935-26.935s-12.083-26.935-26.935-26.935z" fill="#1e284c"/><path d="M909.084 1101.438H576.088l-15.398-25.052h365.249z" fill="#fff"/><path d="M909.084 1108.938H576.088a7.502 7.502 0 0 1-6.39-3.573l-15.398-25.052a7.501 7.501 0 0 1 6.39-11.428h365.249a7.5 7.5 0 0 1 6.223 11.687l-16.854 25.052a7.502 7.502 0 0 1-6.223 3.313zm-328.803-15H905.09l6.763-10.052h-337.75z" fill="#fff"/><g fill="#dea2ff"><path d="M913.938 1004.342H577.289c-10.752 0-19.5-8.748-19.5-19.5 0-.513.052-1.024.157-1.526l17.76-85.468c.034-.162.073-.323.117-.483 2.217-7.975 9.547-13.545 17.824-13.545h303.931c8.278 0 15.607 5.57 17.824 13.545.044.16.083.321.117.483l17.76 85.468a7.52 7.52 0 0 1 .157 1.526c0 10.752-8.748 19.5-19.5 19.5zm-341.11-18.918c.295 2.176 2.218 3.918 4.461 3.918h336.649c2.243 0 4.165-1.742 4.461-3.918l-17.5-84.212a3.51 3.51 0 0 0-3.32-2.391H593.648a3.513 3.513 0 0 0-3.32 2.391zM355.314 841.653a7.47 7.47 0 0 1-2.629-.479 7.5 7.5 0 0 1-4.393-9.654l39.522-105.522a7.5 7.5 0 1 1 14.047 5.261l-39.522 105.522a7.503 7.503 0 0 1-7.025 4.871zm74.441 0a7.5 7.5 0 0 1-7.215-9.564l29.695-103.826a7.5 7.5 0 0 1 14.422 4.125l-29.695 103.826a7.505 7.505 0 0 1-7.207 5.44zm76.843-.349a7.5 7.5 0 0 1-7.322-9.155l23.768-105.174a7.5 7.5 0 1 1 14.631 3.307l-23.768 105.174a7.502 7.502 0 0 1-7.309 5.848zm72.183-.412a7.5 7.5 0 0 1-7.42-8.653l16.283-104.762a7.5 7.5 0 0 1 14.822 2.304l-16.283 104.762a7.502 7.502 0 0 1-7.402 6.349zm70.988.727a7.5 7.5 0 0 1-7.479-8.169l9.283-103.762a7.5 7.5 0 1 1 14.94 1.336l-9.283 103.762a7.502 7.502 0 0 1-7.462 6.832zm69.557 0a7.5 7.5 0 0 1-7.5-7.765l3.718-105.49a7.5 7.5 0 1 1 14.991.529l-3.718 105.49a7.501 7.501 0 0 1-7.49 7.236zm430.405-.14a7.501 7.501 0 0 1-7.016-4.849l-39.522-104.522a7.5 7.5 0 1 1 14.031-5.305l39.522 104.522a7.5 7.5 0 0 1-7.014 10.155zm-74.44 0a7.503 7.503 0 0 1-7.207-5.44l-29.695-103.826a7.5 7.5 0 0 1 14.422-4.125l29.695 103.826a7.5 7.5 0 0 1-7.215 9.564zm-76.843-1.348a7.503 7.503 0 0 1-7.302-5.818l-23.768-103.174a7.5 7.5 0 0 1 14.617-3.367l23.768 103.174a7.5 7.5 0 0 1-7.315 9.185zm-72.183.587a7.5 7.5 0 0 1-7.4-6.338l-16.283-103.762a7.5 7.5 0 0 1 14.819-2.325l16.283 103.762a7.5 7.5 0 0 1-7.419 8.664zm-70.988-.273a7.501 7.501 0 0 1-7.461-6.826l-9.283-102.762a7.5 7.5 0 1 1 14.939-1.349l9.283 102.762a7.499 7.499 0 0 1-7.479 8.175zm-68.557 0a7.5 7.5 0 0 1-7.49-7.231l-3.718-103.49a7.499 7.499 0 0 1 7.226-7.764 7.498 7.498 0 0 1 7.764 7.226l3.718 103.49a7.498 7.498 0 0 1-7.5 7.769z"/><path d="M1191.781 788.89H299.447a7.5 7.5 0 0 1 0-15h892.334a7.5 7.5 0 0 1 0 15z"/><path d="M1198.086 841.651H293.142c-10.752 0-19.5-8.748-19.5-19.5 0-1.059.224-2.106.658-3.072l39.084-87.028a18.527 18.527 0 0 1 16.876-10.921h830.708a18.527 18.527 0 0 1 16.876 10.921l39.084 87.028c.434.966.658 2.013.658 3.072 0 10.752-8.748 19.5-19.5 19.5zm-909.27-18.282c.546 1.87 2.306 3.282 4.325 3.282h904.945c2.019 0 3.779-1.412 4.325-3.282l-38.251-85.173a3.506 3.506 0 0 0-3.193-2.066H330.26a3.506 3.506 0 0 0-3.193 2.066l-38.251 85.174z"/></g></svg></g><g transform="translate(1053.6 710.4) rotate(0.0 544.2 303.59999999999997) scale(1.1997698346733925 1.199485596098116)"><svg width="907.174" height="506.217" viewBox="0 0 907.174 506.217"><path d="M899.674 506.217a7.5 7.5 0 0 1-7.5-7.5V7.5a7.5 7.5 0 0 1 15 0v491.217a7.5 7.5 0 0 1-7.5 7.5Zm-892.174 0a7.5 7.5 0 0 1-7.5-7.5V7.5a7.5 7.5 0 0 1 15 0v491.217a7.5 7.5 0 0 1-7.5 7.5Z" style="fill:#1e284c"/></svg></g><g transform="translate(368.4 1632.0) rotate(42.45220586159826 359.99999999999994 245.39999999999986) scale(1.19967408853928 1.1985201645889543)"><svg width="600.163" height="409.505" viewBox="0 0 600.163 409.505"><path d="M544.781 175.945c16.143-17.931 25.953-41.672 25.904-67.699C570.579 52.5 525.303 7.394 469.556 7.499c-37.893.072-70.85 21.026-88.053 51.94-14.459-1.252-46.613-5.974-79.621-5.935-34.236.041-69.351 4.89-84.344 6.246-17.319-30.849-50.356-51.678-88.249-51.607-55.746.106-100.852 45.382-100.747 101.129.049 26.027 9.95 49.73 26.16 67.6-42.775 80.676-52.984 178.162-44.416 205.007 8.04 25.192 38.413 25.992 67.872 6.547 61.517-40.606 138.779-147.107 138.779-147.107s62.156-7.675 82.913-7.715c20.758-.039 82.942 7.401 82.942 7.401s77.665 106.208 139.335 146.58c29.532 19.334 59.902 18.419 67.846-6.804 8.466-26.877-2.111-124.324-45.192-204.836z" fill="#95ff80"/><g fill="#1e284c"><path d="M39.38 409.53c-5.142 0-10.007-.776-14.48-2.355-10.626-3.75-18.15-11.708-21.759-23.016-9.808-30.729 2.343-127.589 42.56-206.237-15.892-19.318-24.611-43.488-24.658-68.635-.055-28.965 11.173-56.217 31.615-76.737C73.101 12.03 100.31.699 129.275.644h.205c37.509 0 72.328 19.471 92.076 51.174 2.246-.234 4.764-.509 7.491-.807 18.152-1.981 45.583-4.974 72.825-5.006 25.592-.031 50.801 2.768 67.46 4.62 2.971.33 5.705.634 8.128.887C397.125 19.686 431.961.071 469.542 0h.211c28.888 0 56.055 11.222 76.526 31.616 20.52 20.442 31.851 47.652 31.906 76.617.048 25.148-8.58 49.351-24.398 68.728 40.515 78.495 53.031 175.308 43.34 206.074-3.565 11.321-11.06 19.308-21.671 23.098-15.909 5.682-36.845 1.208-57.437-12.273-57.378-37.563-126.61-128.696-139.328-145.785-12.948-1.506-61.376-7.014-78.827-6.971-17.407.033-65.857 5.714-78.8 7.269-12.653 17.138-81.539 108.532-138.775 146.312-14.773 9.751-29.742 14.844-42.909 14.844zm90.1-393.886h-.177c-24.958.047-48.404 9.811-66.019 27.492-17.615 17.682-27.29 41.164-27.242 66.122.044 23.187 8.643 45.41 24.215 62.575a7.498 7.498 0 0 1 1.071 8.552c-18.527 34.943-32.984 77.74-40.708 120.509-7.067 39.132-6.694 67.725-3.19 78.703 2.156 6.756 6.348 11.275 12.46 13.431 11.294 3.985 27.793-.076 44.135-10.863 59.688-39.399 136.075-144.198 136.839-145.251a7.494 7.494 0 0 1 5.152-3.039c2.556-.316 62.848-7.732 83.819-7.771 20.954-.069 81.29 7.148 83.847 7.454a7.5 7.5 0 0 1 5.163 3.02c.769 1.051 77.58 105.579 137.388 144.733 16.384 10.726 32.897 14.724 44.176 10.696 6.104-2.18 10.279-6.715 12.409-13.478 3.462-10.992 3.727-39.587-3.488-78.691-7.885-42.739-22.504-85.482-41.164-120.354a7.5 7.5 0 0 1 1.039-8.557c15.506-17.224 24.022-39.479 23.978-62.666-.047-24.958-9.811-48.404-27.492-66.019C518.053 24.67 494.641 15 469.751 15h-.182c-33.81.064-65.044 18.49-81.513 48.087a7.497 7.497 0 0 1-7.201 3.825c-3.509-.304-7.991-.802-13.18-1.379-16.327-1.815-41.012-4.557-65.785-4.528-26.436.031-53.384 2.972-71.216 4.917-4.911.536-9.153.999-12.461 1.298a7.498 7.498 0 0 1-7.215-3.798c-16.552-29.482-47.777-47.779-81.518-47.779z"/><circle cx="268.543" cy="173.472" r="20.534"/><path d="M268.567 201.507c-.332 0-.664-.006-.997-.017-7.484-.26-14.418-3.419-19.526-8.894-5.108-5.476-7.778-12.613-7.518-20.096s3.419-14.418 8.894-19.526c5.476-5.108 12.615-7.778 20.096-7.518 7.484.26 14.418 3.419 19.526 8.894 5.108 5.476 7.778 12.613 7.518 20.096-.26 7.484-3.419 14.418-8.894 19.526-5.232 4.88-11.98 7.535-19.099 7.535zm-.035-41.069c-3.31 0-6.447 1.234-8.88 3.503a12.948 12.948 0 0 0-4.135 9.078c-.121 3.48 1.12 6.798 3.495 9.344s5.599 4.014 9.078 4.135a12.956 12.956 0 0 0 9.344-3.495 12.948 12.948 0 0 0 4.135-9.078 12.95 12.95 0 0 0-3.495-9.343 12.948 12.948 0 0 0-9.542-4.143z"/><circle cx="351.976" cy="176.37" r="20.534"/><path d="M352 204.405c-.332 0-.664-.006-.997-.017-7.484-.26-14.418-3.419-19.526-8.894-5.108-5.476-7.778-12.613-7.518-20.096.26-7.484 3.419-14.418 8.894-19.526s12.614-7.778 20.096-7.518c7.484.26 14.418 3.419 19.526 8.894 5.108 5.476 7.778 12.613 7.518 20.096s-3.419 14.418-8.894 19.526c-5.232 4.88-11.98 7.535-19.099 7.535zm-.035-41.069c-3.31 0-6.447 1.234-8.88 3.503a12.948 12.948 0 0 0-4.135 9.078c-.121 3.48 1.12 6.798 3.495 9.344s5.599 4.014 9.078 4.135a12.953 12.953 0 0 0 9.344-3.495 12.948 12.948 0 0 0 4.135-9.078 12.954 12.954 0 0 0-3.495-9.344 12.948 12.948 0 0 0-9.542-4.143z"/></g><path d="m178.929 90.336-26.016-.904.904-26.016c.311-8.955-6.762-16.536-15.716-16.848-8.955-.311-16.536 6.762-16.848 15.716l-.904 26.016-26.016-.904c-8.955-.311-16.536 6.761-16.848 15.716-.311 8.955 6.761 16.536 15.716 16.848l26.016.904-.904 26.016c-.311 8.955 6.761 16.536 15.716 16.848 8.955.311 16.536-6.761 16.848-15.716l.904-26.016 26.016.904c8.955.311 16.536-6.762 16.848-15.716.311-8.955-6.761-16.536-15.716-16.848z" fill="#dea2ff"/><path d="M134.611 171.239c-.28 0-.559-.005-.84-.015-13.111-.456-23.407-11.493-22.952-24.603l.643-18.52-18.52-.643c-6.333-.22-12.213-2.905-16.557-7.562-4.344-4.656-6.615-10.708-6.395-17.042.455-13.111 11.491-23.409 24.603-22.952l18.52.643.643-18.52c.456-13.111 11.5-23.407 24.604-22.952 13.111.455 23.407 11.492 22.951 24.603l-.643 18.52 18.52.643c6.333.22 12.213 2.905 16.557 7.562 4.344 4.656 6.615 10.708 6.395 17.042-.455 13.111-11.509 23.408-24.603 22.952l-18.52-.643-.643 18.52c-.22 6.333-2.906 12.213-7.562 16.557-4.449 4.151-10.175 6.409-16.201 6.409zM93.764 94.888c-4.708 0-8.618 3.745-8.782 8.487-.081 2.329.761 4.562 2.372 6.289s3.78 2.722 6.109 2.803l26.016.904a7.499 7.499 0 0 1 7.235 7.756l-.904 26.016c-.168 4.845 3.636 8.923 8.481 9.092 2.325.08 4.562-.761 6.289-2.372s2.722-3.78 2.803-6.109l.904-26.016a7.502 7.502 0 0 1 7.755-7.235l26.016.904c4.84.166 8.924-3.636 9.092-8.481.081-2.329-.761-4.563-2.372-6.289s-3.78-2.722-6.109-2.803l-26.016-.904a7.499 7.499 0 0 1-7.235-7.756l.904-26.016c.168-4.845-3.636-8.923-8.481-9.092-4.849-.164-8.924 3.636-9.092 8.481l-.904 26.016a7.502 7.502 0 0 1-7.755 7.235l-26.016-.904a7.993 7.993 0 0 0-.309-.005z" fill="#1e284c"/><circle cx="471.389" cy="73.621" fill="#fff" r="18.614"/><path d="M471.4 99.735c-.305 0-.611-.005-.918-.016-6.971-.242-13.431-3.185-18.189-8.285s-7.245-11.749-7.003-18.72 3.185-13.431 8.285-18.189c5.101-4.758 11.748-7.243 18.72-7.003 6.971.242 13.43 3.184 18.188 8.285 4.758 5.1 7.245 11.749 7.003 18.72-.489 14.083-12.103 25.208-26.086 25.208zm-.021-37.228a11.037 11.037 0 0 0-7.572 2.987c-2.171 2.025-3.423 4.774-3.526 7.741s.956 5.796 2.98 7.967a11.04 11.04 0 0 0 7.741 3.526c6.121.213 11.28-4.597 11.493-10.721a11.045 11.045 0 0 0-2.98-7.967 11.04 11.04 0 0 0-8.137-3.533z" fill="#1e284c"/><circle cx="515.476" cy="115.079" fill="#fff" r="18.614"/><path d="M515.488 141.193c-.305 0-.611-.005-.918-.016-6.971-.242-13.431-3.184-18.188-8.285-4.758-5.1-7.245-11.749-7.003-18.72s3.184-13.43 8.284-18.189c5.101-4.758 11.76-7.243 18.72-7.003 14.39.5 25.691 12.614 25.192 27.004-.489 14.083-12.103 25.208-26.086 25.208zm-.021-37.228a11.035 11.035 0 0 0-7.572 2.987c-2.17 2.025-3.422 4.774-3.525 7.741s.955 5.797 2.98 7.967 4.774 3.423 7.741 3.526c6.122.21 11.281-4.597 11.493-10.721s-4.597-11.28-10.721-11.493a10.46 10.46 0 0 0-.396-.007zm18.612 11.76h.01z" fill="#1e284c"/><circle cx="428.439" cy="118.553" fill="#fff" r="18.614"/><path d="M428.462 144.667c-.309 0-.618-.005-.929-.016-14.39-.5-25.691-12.614-25.192-27.005.5-14.391 12.6-25.688 27.005-25.192 6.971.242 13.43 3.184 18.188 8.285s7.245 11.749 7.003 18.72-3.184 13.43-8.285 18.189c-4.873 4.546-11.16 7.019-17.791 7.019zm-.028-37.228c-5.952 0-10.894 4.734-11.102 10.728-.212 6.124 4.597 11.28 10.722 11.493 2.962.104 5.796-.955 7.967-2.98s3.423-4.774 3.526-7.741a11.045 11.045 0 0 0-2.98-7.967 11.04 11.04 0 0 0-8.132-3.533z" fill="#1e284c"/><circle cx="472.527" cy="160.011" fill="#fff" r="18.614"/><path d="M472.539 186.125c-.305 0-.611-.005-.919-.016-6.971-.242-13.43-3.184-18.188-8.285s-7.245-11.749-7.003-18.72 3.184-13.43 8.285-18.189c5.1-4.758 11.745-7.243 18.719-7.003 14.39.5 25.691 12.614 25.192 27.005-.489 14.083-12.103 25.208-26.086 25.208zm-.022-37.228a11.037 11.037 0 0 0-7.572 2.987c-2.171 2.025-3.423 4.774-3.526 7.741s.955 5.796 2.98 7.967 4.774 3.423 7.741 3.526a11.02 11.02 0 0 0 7.967-2.98 11.04 11.04 0 0 0 3.526-7.741c.213-6.125-4.597-11.28-10.721-11.493a10.444 10.444 0 0 0-.395-.007zm18.612 11.76h.01z" fill="#1e284c"/></svg></g><g transform="translate(728.4 385.2) rotate(-23.38347273288644 335.99999999999994 168.6) scale(1.198504010173016 1.1979111158478097)"><svg width="560.699" height="281.49" viewBox="0 0 560.699 281.49"><path d="m408.576 7.5-144.357.288-112.627.225C71.866 8.172 7.354 67.842 7.5 141.289c.147 73.448 64.896 132.859 144.622 132.7l112.627-.225 31.73-.063 112.627-.225c79.726-.159 144.238-59.829 144.091-133.276C553.05 66.752 488.301 7.34 408.575 7.499z" fill="#95ff80"/><path d="M151.804 281.49C68.217 281.49.155 218.671 0 141.305-.154 63.839 67.843.68 151.577.513L408.561 0h.337c40.323 0 78.275 14.454 106.902 40.722 28.878 26.497 44.823 61.821 44.898 99.464s-15.729 73.03-44.501 99.642c-28.601 26.455-66.628 41.068-107.075 41.149l-256.985.513h-.333zM408.591 15l-256.985.513C76.143 15.664 14.862 72.08 15 141.274c.138 69.102 61.48 125.215 136.804 125.215h.303l256.985-.513c36.671-.073 71.091-13.27 96.92-37.161 25.659-23.733 39.752-55.198 39.686-88.6s-14.286-64.812-40.04-88.442c-25.851-23.72-60.206-36.774-96.761-36.774h-.307z" fill="#1e284c"/><path d="m145.846 47.17 268.633-.535.374 187.69-268.634.535z" fill="#fff"/><g fill="#1e284c"><path d="M146.22 242.358a7.501 7.501 0 0 1-7.5-7.485l-.375-187.69a7.5 7.5 0 0 1 7.485-7.515l268.633-.536h.015a7.5 7.5 0 0 1 7.5 7.485l.375 187.69a7.5 7.5 0 0 1-7.485 7.515l-268.633.536zm7.14-187.705.345 172.69 253.633-.506-.345-172.69zm-37.009 72.706-21.174.042-.042-21.175c-.006-3.07-2.523-5.577-5.593-5.571l-12.864.026c-3.07.006-5.577 2.523-5.571 5.593l.042 21.175-21.174.042c-3.07.006-5.577 2.523-5.571 5.593l.026 12.864c.006 3.07 2.523 5.577 5.593 5.571l21.174-.042.042 21.174c.006 3.07 2.523 5.577 5.593 5.571l12.864-.026c3.07-.006 5.577-2.523 5.571-5.593l-.042-21.174 21.174-.042c3.07-.006 5.577-2.523 5.571-5.593l-.026-12.864c-.006-3.07-2.523-5.577-5.593-5.571z"/><circle cx="478.397" cy="109.852" r="12.409"/><circle cx="507.531" cy="137.759" r="12.409"/><circle cx="449.49" cy="139.541" r="12.409"/><circle cx="478.625" cy="167.448" r="12.409"/></g></svg></g><g transform="translate(1170.0 621.6) rotate(0.0 425.4 345.59999999999997) scale(1.1989126927201423 1.1982172358140752)"><svg width="709.643" height="576.857" viewBox="0 0 709.643 576.857"><circle cx="603.66" cy="145.425" fill="#fff" r="29.81"/><g fill="#1e284c"><path d="M603.66 182.735c-20.573 0-37.31-16.737-37.31-37.31s16.737-37.309 37.31-37.309 37.31 16.737 37.31 37.309-16.737 37.31-37.31 37.31zm0-59.619c-12.302 0-22.31 10.008-22.31 22.309s10.008 22.31 22.31 22.31 22.31-10.008 22.31-22.31-10.008-22.309-22.31-22.309z"/><ellipse cx="603.66" cy="163.342" rx="50.501" ry="19.916"/><path d="M603.66 190.758c-28.823 0-58.001-9.417-58.001-27.416s29.178-27.416 58.001-27.416 58.001 9.417 58.001 27.416-29.178 27.416-58.001 27.416zm0-39.832c-28.216 0-43.001 9.225-43.001 12.416s14.785 12.416 43.001 12.416 43.001-9.225 43.001-12.416-14.785-12.416-43.001-12.416z"/><path d="M564.533 200.006a7.5 7.5 0 0 1-6.595-11.061l9.311-17.27a7.5 7.5 0 1 1 13.203 7.119l-9.311 17.27a7.498 7.498 0 0 1-6.608 3.942zm78.255 0a7.498 7.498 0 0 1-6.608-3.942l-9.311-17.27a7.5 7.5 0 1 1 13.203-7.119l9.311 17.27a7.5 7.5 0 0 1-6.595 11.061zm-39.128 4.978a7.5 7.5 0 0 1-7.5-7.5V178.08a7.5 7.5 0 0 1 15 0v19.404a7.5 7.5 0 0 1-7.5 7.5z"/></g><circle cx="58.001" cy="278.351" fill="#fff" r="29.81"/><path d="M58.001 315.66c-20.573 0-37.31-16.737-37.31-37.31s16.737-37.309 37.31-37.309 37.31 16.737 37.31 37.309-16.737 37.31-37.31 37.31zm0-59.619c-12.302 0-22.31 10.008-22.31 22.309s10.008 22.31 22.31 22.31 22.31-10.008 22.31-22.31-10.008-22.309-22.31-22.309z" fill="#1e284c"/><ellipse cx="58.001" cy="296.268" fill="#1e284c" rx="50.501" ry="19.916"/><path d="M58.001 323.684C29.178 323.684 0 314.266 0 296.267s29.178-27.416 58.001-27.416 58.001 9.417 58.001 27.416-29.178 27.416-58.001 27.416zm0-39.832c-28.216 0-43.001 9.225-43.001 12.416s14.785 12.416 43.001 12.416 43.001-9.225 43.001-12.416-14.785-12.416-43.001-12.416z" fill="#1e284c"/><path d="M18.874 332.932a7.5 7.5 0 0 1-6.595-11.061l9.311-17.27a7.5 7.5 0 1 1 13.203 7.119l-9.311 17.27a7.498 7.498 0 0 1-6.608 3.942zm78.255 0a7.498 7.498 0 0 1-6.608-3.942l-9.311-17.27a7.5 7.5 0 1 1 13.203-7.119l9.311 17.27a7.5 7.5 0 0 1-6.595 11.061zm-39.128 4.977a7.5 7.5 0 0 1-7.5-7.5v-19.404a7.5 7.5 0 0 1 15 0v19.404a7.5 7.5 0 0 1-7.5 7.5z" fill="#1e284c"/><circle cx="324.071" cy="37.31" fill="#fff" r="29.81"/><path d="M324.071 74.619c-20.573 0-37.31-16.737-37.31-37.31S303.498 0 324.071 0s37.309 16.737 37.309 37.309-16.737 37.31-37.309 37.31zm0-59.619c-12.302 0-22.31 10.008-22.31 22.309s10.008 22.31 22.31 22.31 22.309-10.008 22.309-22.31S336.372 15 324.071 15z" fill="#1e284c"/><ellipse cx="324.071" cy="55.226" fill="#1e284c" rx="50.501" ry="19.916"/><path d="M324.071 82.642c-28.823 0-58.001-9.417-58.001-27.416s29.178-27.416 58.001-27.416 58.001 9.417 58.001 27.416-29.178 27.416-58.001 27.416zm0-39.832c-28.216 0-43.001 9.225-43.001 12.416s14.785 12.416 43.001 12.416 43.001-9.225 43.001-12.416-14.785-12.416-43.001-12.416z" fill="#1e284c"/><path d="M284.944 91.891a7.5 7.5 0 0 1-6.595-11.061l9.311-17.27a7.5 7.5 0 1 1 13.203 7.119l-9.311 17.27a7.498 7.498 0 0 1-6.608 3.942zm78.254 0a7.498 7.498 0 0 1-6.608-3.942l-9.311-17.27a7.5 7.5 0 1 1 13.203-7.119l9.311 17.27a7.5 7.5 0 0 1-6.595 11.061zm-39.127 4.977a7.5 7.5 0 0 1-7.5-7.5V69.964a7.5 7.5 0 0 1 15 0v19.404a7.5 7.5 0 0 1-7.5 7.5z" fill="#1e284c"/><path d="M360.742 339.462a7.5 7.5 0 0 1-7.5-7.5v-40a7.5 7.5 0 0 1 15 0v40a7.5 7.5 0 0 1-7.5 7.5zm0-70a7.5 7.5 0 0 1-7.5-7.5v-40a7.5 7.5 0 0 1 15 0v40a7.5 7.5 0 0 1-7.5 7.5zm0-70a7.5 7.5 0 0 1-7.5-7.5v-40a7.5 7.5 0 0 1 15 0v40a7.5 7.5 0 0 1-7.5 7.5zm0-70a7.5 7.5 0 0 1-7.5-7.5v-40a7.5 7.5 0 0 1 15 0v40a7.5 7.5 0 0 1-7.5 7.5zm.466 439.895s-17.173-31.441-17.324-43.53c-.078-6.19 0-13.015 17.324-13.015s17.402 6.824 17.324 13.015c-.151 12.089-17.324 43.53-17.324 43.53z" fill="#fff"/><path d="M361.208 576.857a7.5 7.5 0 0 1-6.582-3.905c-3.017-5.524-18.075-33.75-18.241-47.032-.046-3.641-.122-9.734 4.61-14.526 4.098-4.15 10.521-6.083 20.213-6.083s16.115 1.933 20.213 6.083c4.732 4.792 4.656 10.885 4.61 14.526-.167 13.281-15.224 41.508-18.241 47.031a7.5 7.5 0 0 1-6.582 3.905zm0-56.545c-7.893 0-9.538 1.617-9.551 1.633-.315.499-.286 2.803-.274 3.787.061 4.905 4.719 16.394 9.824 27.098 5.105-10.704 9.763-22.193 9.824-27.098.012-.984.041-3.289-.276-3.79-.011-.014-1.656-1.631-9.549-1.631z" fill="#1e284c"/><path d="M374.641 512.811h-27.798c-2.53 0-4.6-1.806-4.6-4.014l-4.6-17.654c0-2.207 2.07-4.014 4.6-4.014h36.998c2.53 0 4.6 1.806 4.6 4.014l-4.6 17.654c0 2.207-2.07 4.014-4.6 4.014z" fill="#95ff80"/><path d="M374.642 520.311h-27.799c-6.239 0-11.39-4.516-12.032-10.294l-4.425-16.982a7.498 7.498 0 0 1-.242-1.891c0-6.349 5.428-11.514 12.1-11.514h36.998c6.672 0 12.1 5.165 12.1 11.514 0 .638-.082 1.274-.242 1.891l-4.425 16.982c-.642 5.777-5.793 10.294-12.032 10.294zm-25.556-15H372.4l2.783-10.681h-28.88z" fill="#1e284c"/><path d="M393.59 346.104c-8.254-11.622-31-29.761-32.848-29.526-1.848-.235-24.86 17.763-32.848 29.526-4.733 6.97-7.494 16.751-9.233 26.699 0 0 31.986-5.774 42.647-5.774 10.662 0 42.647 5.772 42.647 5.772-1.683-9.33-4.549-18.507-10.366-26.696z" fill="#95ff80"/><path d="M318.661 380.303a7.497 7.497 0 0 1-7.387-8.791c2.262-12.942 5.669-22.631 10.416-29.621 5.157-7.593 14.789-16.267 20.072-20.761 12.993-11.054 16.593-12.188 18.962-12.086 2.411-.129 5.848.948 18.922 12.157 5.211 4.468 14.747 13.08 20.059 20.56 5.737 8.077 9.433 17.517 11.632 29.708a7.501 7.501 0 0 1-8.713 8.713c-8.714-1.572-33.125-5.653-41.315-5.652-8.196 0-32.603 4.082-41.315 5.655-.444.08-.89.119-1.333.119zm42.068-55.066c-6.347 4.572-20.984 16.766-26.631 25.081-2.212 3.257-4.112 7.677-5.681 13.202 10.563-1.734 25.696-3.99 32.891-3.991 7.134 0 22.072 2.218 32.622 3.944-1.653-4.991-3.773-9.251-6.454-13.026-5.793-8.155-20.296-20.527-26.747-25.21z" fill="#1e284c"/><path d="M405.943 388.115c-.495-5.059-1.067-10.208-1.987-15.312 0 0-31.195-5.763-41.857-5.763s-43.646 5.763-43.646 5.763l-2.912 15.312c-2.496 25.521 21.536 100.353 21.536 100.353h47.331s24.032-74.832 21.536-100.353z" fill="#fff"/><path d="M384.408 495.968h-47.331a7.5 7.5 0 0 1-7.141-5.207c-1-3.116-24.477-76.618-21.859-103.376.022-.225.054-.449.096-.671l2.912-15.312a7.5 7.5 0 0 1 6.075-5.986c3.437-.601 33.893-5.876 44.939-5.876s39.957 5.286 43.219 5.888a7.5 7.5 0 0 1 6.018 6.044c.987 5.474 1.579 10.883 2.071 15.914 2.617 26.758-20.859 100.26-21.859 103.376a7.5 7.5 0 0 1-7.141 5.207zm-41.829-15h36.327c7.305-23.611 21.349-73.943 19.573-92.123-.303-3.098-.644-6.339-1.096-9.6-10.598-1.849-28.433-4.706-35.284-4.706-6.999 0-26.122 2.933-37.252 4.783l-1.872 9.84c-1.588 18.438 12.338 68.328 19.603 91.805z" fill="#1e284c"/><path d="M304.815 525.826s12.456-21.063 16.898-26.699c2.985-3.787 12.813-10.994 12.813-10.994l-11.784-44.394s-16.593 20.443-19.706 42.718c-1.366 9.776 1.779 39.368 1.779 39.368z" fill="#95ff80"/><path d="M304.817 533.327a7.501 7.501 0 0 1-7.46-6.708c-.332-3.123-3.2-30.809-1.749-41.198 3.363-24.066 20.579-45.506 21.31-46.407a7.501 7.501 0 0 1 13.072 2.802l11.784 44.394a7.501 7.501 0 0 1-2.813 7.972c-4.334 3.18-9.91 7.751-11.359 9.589-3.388 4.298-12.939 20.134-16.333 25.874a7.503 7.503 0 0 1-6.454 3.683zm14.975-71.471c-3.949 7.097-8.018 16.27-9.327 25.641-.423 3.028-.326 8.67-.008 14.797 2.094-3.248 4.023-6.104 5.367-7.809 2.213-2.807 6.741-6.589 10.166-9.28l-6.198-23.35z" fill="#1e284c"/><path d="M416.909 525.826s-12.456-21.063-16.898-26.699c-2.985-3.787-12.813-10.994-12.813-10.994l11.784-44.394s16.593 20.443 19.706 42.718c1.366 9.776-1.779 39.368-1.779 39.368z" fill="#95ff80"/><path d="M416.908 533.327a7.5 7.5 0 0 1-6.454-3.683c-3.394-5.739-12.945-21.575-16.333-25.874-1.449-1.838-7.024-6.408-11.359-9.589a7.501 7.501 0 0 1-2.813-7.972l11.784-44.394a7.5 7.5 0 0 1 13.072-2.802c.731.901 17.947 22.341 21.31 46.407 1.452 10.389-1.417 38.076-1.749 41.198a7.5 7.5 0 0 1-7.46 6.708zm-21.173-48.122c3.425 2.69 7.953 6.472 10.166 9.279 1.344 1.705 3.274 4.561 5.367 7.809.318-6.127.415-11.769-.008-14.797-1.31-9.371-5.378-18.543-9.327-25.641l-6.198 23.349z" fill="#1e284c"/><circle cx="360.862" cy="410.234" fill="#fff" r="17.324"/><path d="M360.862 435.058c-13.688 0-24.824-11.136-24.824-24.824s11.136-24.824 24.824-24.824 24.824 11.136 24.824 24.824-11.136 24.824-24.824 24.824zm0-34.648c-5.417 0-9.824 4.407-9.824 9.824s4.407 9.824 9.824 9.824 9.824-4.407 9.824-9.824-4.407-9.824-9.824-9.824z" fill="#1e284c"/><path d="m390.556 88.078-26.538 5.631c-.425.09-.865.087-1.288-.009l-25.079-5.706a3 3 0 0 1-2.104-4.079l2.825-6.783a3 3 0 0 0-.086-2.495l-18.549-37.108c-1.311-2.624 1.534-5.376 4.113-3.979l21.158 11.465a3 3 0 0 0 4.302-1.772l12.043-39.984c.874-2.901 5.007-2.826 5.775.105l10.426 39.804a3 3 0 0 0 4.263 1.913l22.928-11.673c2.627-1.338 5.406 1.52 3.995 4.109l-20.072 36.838a3 3 0 0 0 .065 2.984l3.77 6.257c1.064 1.766.07 4.055-1.947 4.483zm-274.494 4.148c-1.558-13.618-13.922-23.494-27.636-21.83-7.481.832-14.13 4.99-18.182 11.331-9.662-4.99-21.506-1.247-26.597 8.42-.831 1.559-1.455 3.223-1.766 4.99-10.286.312-18.39 8.94-18.078 19.335.312 10.084 8.623 18.088 18.701 18.088h66.493c11.429 0 20.779-9.252 20.779-20.791 0-8.732-5.506-16.529-13.714-19.543zm579.867 109.813c-1.558-13.618-13.922-23.494-27.636-21.83-7.481.832-14.13 4.99-18.182 11.331-9.662-4.99-21.506-1.247-26.597 8.42-.831 1.559-1.455 3.223-1.766 4.99-10.286.312-18.39 8.94-18.078 19.335.312 10.084 8.623 18.088 18.701 18.088h66.493c11.429 0 20.779-9.252 20.779-20.791 0-8.732-5.506-16.529-13.714-19.543zM200.771 468.403c-1.558-13.618-13.922-23.494-27.636-21.83-7.481.832-14.13 4.99-18.182 11.331-9.662-4.99-21.506-1.247-26.597 8.42-.831 1.559-1.455 3.223-1.766 4.99-10.286.312-18.39 8.94-18.078 19.335.312 10.084 8.623 18.088 18.701 18.088h66.493c11.429 0 20.779-9.252 20.779-20.791 0-8.732-5.506-16.529-13.714-19.543z" fill="#fff"/></svg></g><g transform="translate(2014.8 475.2) rotate(-12.861567372632697 258.6 338.4) scale(1.2026200934286069 1.2005278916970583)"><svg width="430.061" height="563.752" viewBox="0 0 430.061 563.752"><rect fill="#fff" height="401.166" rx="42.36" transform="matrix(.99999427 -.00338593 .00338593 .99999427 -.703 .433)" width="104.405" x="75.67" y="7.532"/><path d="M118.561 416.231c-13.208 0-25.666-5.153-35.097-14.521-9.473-9.409-14.714-21.899-14.759-35.17L67.636 50.095c-.045-13.271 5.112-25.797 14.521-35.269C91.565 5.353 104.055.112 117.326.067L137.012 0h.171c27.415 0 49.764 22.256 49.857 49.691l1.069 316.445c.093 27.493-22.199 49.935-49.691 50.028l-.025-7.5.025 7.5-19.686.067h-.172zM137.183 15h-.12l-19.686.066c-9.265.031-17.993 3.7-24.578 10.33S82.604 40.779 82.636 50.044l1.069 316.445c.031 9.264 3.7 17.993 10.33 24.578 6.629 6.585 15.369 10.174 24.647 10.163l19.686-.067c19.222-.065 34.807-15.756 34.742-34.977l-1.069-316.445c-.065-19.18-15.692-34.742-34.857-34.742z" fill="#1e284c"/><circle cx="128.64" cy="435.112" fill="#fff" r="121.14"/><path d="M128.632 563.752C57.902 563.752.24 506.332 0 435.547c-.24-70.932 57.272-128.834 128.204-129.073h.442c70.73 0 128.393 57.42 128.632 128.205.116 34.361-13.155 66.71-37.37 91.089-24.214 24.379-56.473 37.869-90.834 37.985h-.442zm.013-242.279h-.39C65.594 321.685 14.788 372.835 15 435.496c.211 62.527 51.155 113.255 113.633 113.255h.39c30.354-.103 58.852-12.02 80.243-33.556s33.115-50.113 33.012-80.467c-.211-62.527-51.155-113.255-113.633-113.255z" fill="#1e284c"/><circle cx="128.64" cy="435.112" fill="#95ff80" r="78.532"/><g fill="#1e284c"><path d="M128.631 521.144c-22.869 0-44.386-8.869-60.62-24.993-16.304-16.194-25.326-37.768-25.403-60.748-.16-47.438 38.303-86.161 85.74-86.322 22.985-.062 44.614 8.798 60.918 24.992 16.303 16.193 25.325 37.77 25.403 60.748.078 22.98-8.798 44.614-24.992 60.918s-37.768 25.326-60.748 25.404h-.299zm.015-157.063h-.247c-39.167.132-70.923 32.104-70.791 71.271.132 39.083 31.975 70.788 71.027 70.792h.244c18.973-.064 36.786-7.513 50.156-20.974 13.371-13.461 20.699-31.324 20.635-50.297-.064-18.973-7.513-36.786-20.974-50.156-13.402-13.312-31.17-20.635-50.05-20.635z"/><ellipse cx="397.94" cy="402.206" rx="30.248" ry="24.472" transform="matrix(.15008755 -.98867271 .98867271 .15008755 -59.439 735.269)"/><path d="M396.374 439.837c-1.358 0-2.727-.101-4.1-.31-17.43-2.646-29.069-21.541-25.945-42.119s19.849-35.168 37.276-32.521c17.43 2.646 29.069 21.541 25.945 42.119-2.878 18.957-17.295 32.831-33.176 32.831zm3.057-60.266c-8.554 0-16.52 8.547-18.271 20.088-1.883 12.401 4.113 23.633 13.366 25.038.643.097 1.285.145 1.923.145 8.554.001 16.52-8.547 18.271-20.088 1.883-12.401-4.113-23.633-13.366-25.038a12.752 12.752 0 0 0-1.923-.145z"/><path d="M349.463 548.13c-12.072 0-26.752-2.934-44.317-8.825-21.624-7.252-47.548-19.042-77.051-35.041-49.947-27.085-93.7-57.411-94.136-57.714a7.5 7.5 0 0 1 8.562-12.317c.43.299 43.595 30.212 92.831 56.902 50.788 27.531 90.342 41.99 114.177 41.991 5.545 0 10.236-.782 14.023-2.364 4.885-2.041 16.941-12.02 23.358-60.5 3.736-28.223 3.574-55.269 3.571-55.539a7.5 7.5 0 0 1 7.441-7.558h.06a7.5 7.5 0 0 1 7.499 7.44c.009 1.139.177 28.229-3.681 57.474-5.539 41.99-16.159 65.713-32.468 72.524-5.623 2.348-12.223 3.525-19.869 3.526z"/></g></svg></g><g transform="translate(160.79999999999998 1282.8) rotate(0.0 375.6 61.799999999999955) scale(1.204506315961633 1.1912449280530462)"><svg width="623.658" height="103.757" viewBox="0 0 623.658 103.757"><path d="M571.779 103.757h-519.9C23.273 103.757 0 80.484 0 51.879S23.273 0 51.879 0h519.9c28.606 0 51.879 23.273 51.879 51.879s-23.273 51.879-51.879 51.879zM51.879 15c-20.335 0-36.878 16.544-36.878 36.879s16.543 36.879 36.878 36.879h519.9c20.335 0 36.879-16.544 36.879-36.879S592.114 15 571.779 15z" fill="#dea2ff"/><rect fill="#95ff80" height="19.957" rx="9.978" width="515.348" x="55.1" y="41.9"/><path d="M364.836 61.857H61.216c-3.364 0-6.116-4.49-6.116-9.978 0-5.488 2.752-9.978 6.116-9.978h303.62" fill="#dea2ff"/></svg></g><g transform="translate(2576.4 1864.8) rotate(33.032768188524955 108.59999999999991 163.19999999999993) scale(1.2063315745626204 1.204525828665057)"><svg width="180.05" height="270.978" viewBox="0 0 180.05 270.978"><path d="m65.352 7.501 50.52.232c31.425.144 56.822 25.775 56.678 57.2l-.493 107.46-164.399-.755.494-107.459c.144-31.425 25.775-56.822 57.2-56.678z" fill="#dea2ff"/><path d="M172.056 179.891h-.035l-164.397-.754a7.497 7.497 0 0 1-7.465-7.534L.652 64.145c.079-17.212 6.856-33.364 19.083-45.479C31.961 6.55 48.147-.101 65.386 0l50.519.232c35.532.163 64.307 29.203 64.144 64.735l-.493 107.458a7.501 7.501 0 0 1-7.5 7.466zm-156.864-15.72 149.398.685.458-99.958c.125-27.261-21.952-49.541-49.213-49.666L65.316 15c-13.231-.031-25.645 5.025-35.025 14.32-9.381 9.295-14.58 21.687-14.641 34.892l-.459 99.958z" fill="#1e284c"/><path d="m7.994 98.587 164.397.755-.493 107.458c-.145 31.426-25.775 56.823-57.201 56.678l-50.52-.231C32.752 263.102 7.355 237.47 7.5 206.046l.494-107.46z" fill="#dea2ff"/><g fill="#1e284c"><path d="M114.968 270.979h-.304l-50.519-.232c-17.212-.079-33.364-6.856-45.479-19.083S-.078 223.224 0 206.011L.493 98.553a7.499 7.499 0 0 1 7.5-7.465h.034l164.398.754a7.497 7.497 0 0 1 7.465 7.534l-.493 107.458c-.079 17.212-6.856 33.364-19.083 45.479-12.154 12.043-28.249 18.666-45.348 18.666zm-.235-15.001h.233c13.119 0 25.466-5.08 34.792-14.321 9.381-9.295 14.58-21.687 14.641-34.892l.459-99.959-149.398-.685-.458 99.959c-.061 13.206 5.025 25.645 14.32 35.025 9.295 9.381 21.687 14.58 34.892 14.641l50.52.232z"/><path d="M90.235 97.315h-.036a7.5 7.5 0 0 1-7.465-7.534l.207-44.922c.019-4.142 3.421-7.515 7.535-7.465a7.5 7.5 0 0 1 7.465 7.534l-.207 44.922a7.5 7.5 0 0 1-7.499 7.465z"/></g></svg></g></svg>